  0
SECTION
  2
HEADER
  9
$ACADVER
  1
AC1009
  9
$DWGCODEPAGE
  3
ansi_1252
  9
$INSBASE
 10
0.0
 20
0.0
 30
0.0
  9
$EXTMIN
 10
46.59335597445064
 20
-239.5847241858125
 30
-49.1793126598162
  9
$EXTMAX
 10
285.0807647755493
 20
0.8466839358124869
 30
-6.765636730667886
  9
$LIMMIN
 10
0.0
 20
0.0
  9
$LIMMAX
 10
420.0
 20
297.0
  9
$ORTHOMODE
 70
     0
  9
$REGENMODE
 70
     1
  9
$FILLMODE
 70
     1
  9
$QTEXTMODE
 70
     0
  9
$MIRRTEXT
 70
     1
  9
$DRAGMODE
 70
     2
  9
$LTSCALE
 40
1.0
  9
$OSMODE
 70
    37
  9
$ATTMODE
 70
     1
  9
$TEXTSIZE
 40
2.5
  9
$TRACEWID
 40
1.0
  9
$TEXTSTYLE
  7
STANDARD
  9
$CLAYER
  8
0
  9
$CELTYPE
  6
BYLAYER
  9
$CECOLOR
 62
   256
  9
$DIMSCALE
 40
1.0
  9
$DIMASZ
 40
2.5
  9
$DIMEXO
 40
0.625
  9
$DIMDLI
 40
3.75
  9
$DIMRND
 40
0.0
  9
$DIMDLE
 40
0.0
  9
$DIMEXE
 40
1.25
  9
$DIMTP
 40
0.0
  9
$DIMTM
 40
0.0
  9
$DIMTXT
 40
2.5
  9
$DIMCEN
 40
2.5
  9
$DIMTSZ
 40
0.0
  9
$DIMTOL
 70
     0
  9
$DIMLIM
 70
     0
  9
$DIMTIH
 70
     1
  9
$DIMTOH
 70
     0
  9
$DIMSE1
 70
     0
  9
$DIMSE2
 70
     0
  9
$DIMTAD
 70
     1
  9
$DIMZIN
 70
     8
  9
$DIMBLK
  1

  9
$DIMASO
 70
     1
  9
$DIMSHO
 70
     1
  9
$DIMPOST
  1
mm
  9
$DIMAPOST
  1

  9
$DIMALT
 70
     0
  9
$DIMALTD
 70
     3
  9
$DIMALTF
 40
0.0393700787401575
  9
$DIMLFAC
 40
1.0
  9
$DIMTOFL
 70
     1
  9
$DIMTVP
 40
0.0
  9
$DIMTIX
 70
     0
  9
$DIMSOXD
 70
     0
  9
$DIMSAH
 70
     0
  9
$DIMBLK1
  1

  9
$DIMBLK2
  1

  9
$DIMSTYLE
  2
ISO-25
  9
$DIMCLRD
 70
     0
  9
$DIMCLRE
 70
     0
  9
$DIMCLRT
 70
     0
  9
$DIMTFAC
 40
1.0
  9
$DIMGAP
 40
0.625
  9
$LUNITS
 70
     2
  9
$LUPREC
 70
     4
  9
$SKETCHINC
 40
1.0
  9
$FILLETRAD
 40
10.0
  9
$AUNITS
 70
     0
  9
$AUPREC
 70
     0
  9
$MENU
  1
.
  9
$ELEVATION
 40
0.0
  9
$PELEVATION
 40
0.0
  9
$THICKNESS
 40
0.0
  9
$LIMCHECK
 70
     0
  9
$CHAMFERA
 40
0.0
  9
$CHAMFERB
 40
0.0
  9
$SKPOLY
 70
     0
  9
$TDCREATE
 40
2459522.575791007
  9
$TDUPDATE
 40
2459522.575791238
  9
$TDINDWG
 40
0.0000000116
  9
$TDUSRTIMER
 40
0.0000000116
  9
$USRTIMER
 70
     1
  9
$ANGBASE
 50
0.0
  9
$ANGDIR
 70
     0
  9
$PDMODE
 70
     0
  9
$PDSIZE
 40
0.0
  9
$PLINEWID
 40
0.0
  9
$COORDS
 70
     1
  9
$SPLFRAME
 70
     0
  9
$SPLINETYPE
 70
     6
  9
$SPLINESEGS
 70
     8
  9
$ATTDIA
 70
     0
  9
$ATTREQ
 70
     1
  9
$HANDLING
 70
     1
  9
$HANDSEED
  5
25A
  9
$SURFTAB1
 70
     6
  9
$SURFTAB2
 70
     6
  9
$SURFTYPE
 70
     6
  9
$SURFU
 70
     6
  9
$SURFV
 70
     6
  9
$UCSNAME
  2

  9
$UCSORG
 10
0.0
 20
0.0
 30
0.0
  9
$UCSXDIR
 10
1.0
 20
0.0
 30
0.0
  9
$UCSYDIR
 10
0.0
 20
1.0
 30
0.0
  9
$PUCSNAME
  2

  9
$PUCSORG
 10
0.0
 20
0.0
 30
0.0
  9
$PUCSXDIR
 10
1.0
 20
0.0
 30
0.0
  9
$PUCSYDIR
 10
0.0
 20
1.0
 30
0.0
  9
$USERI1
 70
     0
  9
$USERI2
 70
     0
  9
$USERI3
 70
     0
  9
$USERI4
 70
     0
  9
$USERI5
 70
     0
  9
$USERR1
 40
0.0
  9
$USERR2
 40
0.0
  9
$USERR3
 40
0.0
  9
$USERR4
 40
0.0
  9
$USERR5
 40
0.0
  9
$WORLDVIEW
 70
     1
  9
$SHADEDGE
 70
     3
  9
$SHADEDIF
 70
    70
  9
$TILEMODE
 70
     1
  9
$MAXACTVP
 70
    64
  9
$PLIMCHECK
 70
     0
  9
$PEXTMIN
 10
1.000000000000000E+20
 20
1.000000000000000E+20
 30
1.000000000000000E+20
  9
$PEXTMAX
 10
-1.000000000000000E+20
 20
-1.000000000000000E+20
 30
-1.000000000000000E+20
  9
$PLIMMIN
 10
0.0
 20
0.0
  9
$PLIMMAX
 10
420.0
 20
297.0
  9
$UNITMODE
 70
     0
  9
$VISRETAIN
 70
     1
  9
$PLINEGEN
 70
     0
  9
$PSLTSCALE
 70
     1
  0
ENDSEC
  0
SECTION
  2
TABLES
  0
TABLE
  2
VPORT
 70
     1
  0
VPORT
  2
*ACTIVE
 70
     0
 10
0.0
 20
0.0
 11
1.0
 21
1.0
 12
165.837060375
 22
-119.369020125
 13
0.0
 23
0.0
 14
10.0
 24
10.0
 15
10.0
 25
10.0
 16
0.0
 26
0.0
 36
1.0
 17
0.0
 27
0.0
 37
0.0
 40
240.431408121625
 41
0.9919145367249902
 42
50.0
 43
0.0
 44
0.0
 50
0.0
 51
0.0
 71
     0
 72
   100
 73
     1
 74
     3
 75
     0
 76
     0
 77
     0
 78
     0
  0
ENDTAB
  0
TABLE
  2
LTYPE
 70
     1
  0
LTYPE
  2
CONTINUOUS
 70
     0
  3
Solid line
 72
    65
 73
     0
 40
0.0
  0
ENDTAB
  0
TABLE
  2
LAYER
 70
     1
  0
LAYER
  2
0
 70
     0
 62
   253
  6
CONTINUOUS
  0
ENDTAB
  0
TABLE
  2
STYLE
 70
     1
  0
STYLE
  2
STANDARD
 70
     0
 40
0.0
 41
1.0
 50
0.0
 71
     0
 42
2.5
  3
txt
  4

  0
ENDTAB
  0
TABLE
  2
VIEW
 70
     0
  0
ENDTAB
  0
TABLE
  2
UCS
 70
     0
  0
ENDTAB
  0
TABLE
  2
APPID
 70
     1
  0
APPID
  2
ACAD
 70
     0
  0
ENDTAB
  0
TABLE
  2
DIMSTYLE
 70
     1
  0
DIMSTYLE
  2
ISO-25
 70
     0
  3

  4

  5

  6

  7

 40
1.0
 41
2.5
 42
0.625
 43
3.75
 44
1.25
 45
0.0
 46
0.0
 47
0.0
 48
0.0
140
2.5
141
2.5
142
0.0
143
0.03937007874016
144
1.0
145
0.0
146
1.0
147
0.625
 71
     0
 72
     0
 73
     0
 74
     0
 75
     0
 76
     0
 77
     1
 78
     8
170
     0
171
     3
172
     1
173
     0
174
     0
175
     0
176
     0
177
     0
178
     0
  0
ENDTAB
  0
ENDSEC
  0
SECTION
  2
BLOCKS
  0
BLOCK
  8
0
  2
$MODEL_SPACE
 70
     0
 10
0.0
 20
0.0
 30
0.0
  3
$MODEL_SPACE
  1

  0
ENDBLK
  5
21
  8
0
  0
BLOCK
 67
     1
  8
0
  2
$PAPER_SPACE
 70
     0
 10
0.0
 20
0.0
 30
0.0
  3
$PAPER_SPACE
  1

  0
ENDBLK
  5
1D
 67
     1
  8
0
  0
ENDSEC
  0
SECTION
  2
ENTITIES
  0
LINE
  5
6E
  8
0
 10
47.21912287500001
 20
-24.82970762500001
 30
0.0
 11
46.593397875
 21
-230.621132625
 31
0.0000000000000014
  0
LINE
  5
6F
  8
0
 10
55.484047875
 20
-239.5846826250001
 30
0.0
 11
259.6068728750001
 21
-238.9589576250001
 31
-0.0000000000000057
  0
LINE
  5
70
  8
0
 10
284.4549978749999
 20
-213.9083326250001
 30
0.0
 11
285.0807228749999
 21
-8.116907625000058
 31
0.0000000000000014
  0
LINE
  5
71
  8
0
 10
276.1900728749999
 20
0.846642375000001
 30
0.0
 11
72.06724787499999
 21
0.2209173750000005
 31
-0.0000000000000057
  0
LINE
  5
72
  8
0
 10
47.267722875
 20
-8.845907624999999
 30
0.0
 11
47.219122875
 21
-24.82970762500001
 31
-0.0000000000000006
  0
LINE
  5
73
  8
0
 10
72.067247875
 20
0.2209173750000003
 30
-0.0000000000000035
 11
56.21304787500002
 21
0.1723173750000002
 31
-0.0000000000000039
  0
LINE
  5
74
  8
0
 10
284.406397875
 20
-229.892132625
 30
-0.0000000000000069
 11
284.454997875
 21
-213.9083326250001
 31
-0.0000000000000035
  0
LINE
  5
75
  8
0
 10
259.606872875
 20
-238.9589576250001
 30
0.0
 11
275.461072875
 21
-238.9103576250001
 31
0.0000000000000066
  0
LINE
  5
76
  8
0
 10
260.115654125
 20
-71.62855137500003
 30
-0.0000000000000069
 11
260.1764041250001
 21
-51.64880137500001
 31
-0.0000000000000078
  0
LINE
  5
77
  8
0
 10
260.1764041250001
 20
-51.64880137500003
 30
0.0
 11
265.130841625
 21
-51.63361387500002
 31
0.0000000000000051
  0
LINE
  5
78
  8
0
 10
265.1308416250001
 20
-51.63361387500002
 30
0.0000000000000069
 11
265.070091625
 21
-71.61336387500003
 31
0.0000000000000003
  0
LINE
  5
79
  8
0
 10
265.070091625
 20
-71.61336387500003
 30
0.0
 11
260.1156541250001
 21
-71.62855137500003
 31
0.0000000000000025
  0
LINE
  5
7A
  8
0
 10
259.7663416250001
 20
-186.512113875
 30
0.0000000000000069
 11
264.720779125
 21
-186.4969263750001
 31
0.0000000000000045
  0
LINE
  5
7B
  8
0
 10
264.720779125
 20
-186.4969263750001
 30
0.0
 11
264.781529125
 21
-166.5171763750001
 31
-0.0000000000000008
  0
LINE
  5
7C
  8
0
 10
264.781529125
 20
-166.5171763750001
 30
0.0000000000000069
 11
259.827091625
 21
-166.5323638750001
 31
0.0000000000000024
  0
LINE
  5
7D
  8
0
 10
259.9561853750001
 20
-124.075395125
 30
-0.0000000000000069
 11
264.9106228750001
 21
-124.060207625
 31
-0.0000000000000024
  0
LINE
  5
7E
  8
0
 10
264.910622875
 20
-124.060207625
 30
0.0
 11
264.925810375
 21
-119.065270125
 31
-0.0000000000000011
  0
LINE
  5
7F
  8
0
 10
259.9865603750001
 20
-114.085520125
 30
0.0
 11
264.940997875
 21
-114.070332625
 31
0.0000000000000045
  0
LINE
  5
80
  8
0
 10
264.940997875
 20
-114.070332625
 30
0.0
 11
264.925810375
 21
-119.065270125
 31
-0.0000000000000051
  0
LINE
  5
81
  8
0
 10
71.847029125
 20
-72.20567637500002
 30
0.0
 11
71.90777912500002
 21
-52.22592637500003
 31
-0.0000000000000008
  0
LINE
  5
82
  8
0
 10
71.90777912500002
 20
-52.22592637500002
 30
0.0
 11
66.953341625
 21
-52.24111387500002
 31
0.0000000000000011
  0
LINE
  5
83
  8
0
 10
66.953341625
 20
-52.24111387500003
 30
0.0
 11
66.892591625
 21
-72.22086387500002
 31
0.0000000000000008
  0
LINE
  5
84
  8
0
 10
66.89259162500001
 20
-72.22086387500002
 30
0.0000000000000017
 11
71.84702912500002
 21
-72.20567637500002
 31
0.0000000000000008
  0
LINE
  5
85
  8
0
 10
71.558466625
 20
-167.109488875
 30
0.0
 11
71.49771662499998
 21
-187.089238875
 31
0.0000000000000008
  0
LINE
  5
86
  8
0
 10
71.497716625
 20
-187.0892388750001
 30
0.0
 11
66.543279125
 21
-187.1044263750001
 31
-0.0000000000000019
  0
LINE
  5
87
  8
0
 10
66.54327912500001
 20
-187.1044263750001
 30
0.0
 11
66.60402912500001
 21
-167.1246763750001
 31
0.000000000000001
  0
LINE
  5
88
  8
0
 10
66.604029125
 20
-167.1246763750001
 30
0.0000000000000035
 11
71.55846662500001
 21
-167.1094888750001
 31
0.0000000000000036
  0
LINE
  5
89
  8
0
 10
71.70274787500001
 20
-119.657582625
 30
0.0
 11
71.717935375
 21
-114.662645125
 31
0.0000000000000017
  0
LINE
  5
8A
  8
0
 10
71.717935375
 20
-114.662645125
 30
0.0000000000000035
 11
66.76349787500001
 21
-114.677832625
 31
0.0000000000000025
  0
LINE
  5
8B
  8
0
 10
66.76349787500003
 20
-114.6778326250001
 30
0.0
 11
66.74831037500002
 21
-119.672770125
 31
0.0000000000000009
  0
LINE
  5
8C
  8
0
 10
71.68756037500002
 20
-124.652520125
 30
0.0
 11
66.733122875
 21
-124.667707625
 31
0.000000000000001
  0
LINE
  5
8D
  8
0
 10
66.733122875
 20
-124.667707625
 30
0.0000000000000017
 11
66.748310375
 21
-119.672770125
 31
0.0000000000000022
  0
LINE
  5
8E
  8
0
 10
119.058466625
 20
-24.60948887500001
 30
-0.0000000000000035
 11
119.073654125
 21
-19.61455137500001
 31
-0.0000000000000017
  0
LINE
  5
8F
  8
0
 10
119.073654125
 20
-19.61455137500001
 30
0.0
 11
99.255904125
 21
-19.67530137500001
 31
-0.0000000000000011
  0
LINE
  5
90
  8
0
 10
99.255904125
 20
-19.67530137500001
 30
-0.0000000000000017
 11
99.24071662499999
 21
-24.67023887500001
 31
0.0000000000000002
  0
LINE
  5
91
  8
0
 10
99.24071662499999
 20
-24.67023887500001
 30
0.0
 11
119.058466625
 21
-24.60948887500001
 31
-0.0000000000000022
  0
LINE
  5
92
  8
0
 10
213.192779125
 20
-24.32092637500001
 30
-0.0000000000000035
 11
213.207966625
 21
-19.32598887500001
 31
-0.0000000000000054
  0
LINE
  5
93
  8
0
 10
213.207966625
 20
-19.32598887500001
 30
-0.0000000000000035
 11
233.0257166250001
 21
-19.26523887500001
 31
-0.0000000000000073
  0
LINE
  5
94
  8
0
 10
233.0257166250001
 20
-19.26523887500001
 30
-0.0000000000000069
 11
233.010529125
 21
-24.26017637500001
 31
-0.0000000000000047
  0
LINE
  5
95
  8
0
 10
233.010529125
 20
-24.26017637500001
 30
0.0
 11
213.192779125
 21
-24.32092637500001
 31
0.0000000000000039
  0
LINE
  5
96
  8
0
 10
166.140810375
 20
-19.470270125
 30
0.0
 11
171.095247875
 21
-19.455082625
 31
-0.000000000000003
  0
LINE
  5
97
  8
0
 10
171.095247875
 20
-19.455082625
 30
-0.0000000000000035
 11
171.080060375
 21
-24.45002012500001
 31
-0.0000000000000018
  0
LINE
  5
98
  8
0
 10
171.080060375
 20
-24.45002012500001
 30
0.0
 11
166.125622875
 21
-24.46520762500001
 31
0.0000000000000029
  0
LINE
  5
99
  8
0
 10
166.140810375
 20
-19.470270125
 30
0.0
 11
161.186372875
 21
-19.48545762500001
 31
-0.0000000000000007
  0
LINE
  5
9A
  8
0
 10
161.186372875
 20
-19.485457625
 30
0.0
 11
161.171185375
 21
-24.480395125
 31
0.0000000000000016
  0
LINE
  5
9B
  8
0
 10
118.481341625
 20
-214.417113875
 30
-0.0000000000000035
 11
118.466154125
 21
-219.412051375
 31
-0.0000000000000033
  0
LINE
  5
9C
  8
0
 10
118.466154125
 20
-219.412051375
 30
0.0
 11
98.64840412499998
 21
-219.472801375
 31
0.0000000000000039
  0
LINE
  5
9D
  8
0
 10
98.64840412499998
 20
-219.4728013750001
 30
0.0000000000000035
 11
98.663591625
 21
-214.4778638750001
 31
0.0000000000000026
  0
LINE
  5
9E
  8
0
 10
212.615654125
 20
-214.128551375
 30
0.0
 11
212.600466625
 21
-219.123488875
 31
-0.0000000000000032
  0
LINE
  5
9F
  8
0
 10
212.6004666250001
 20
-219.1234888750001
 30
0.0
 11
232.418216625
 21
-219.0627388750001
 31
0.0000000000000055
  0
LINE
  5
A0
  8
0
 10
232.418216625
 20
-219.0627388750001
 30
0.0
 11
232.433404125
 21
-214.0678013750001
 31
-0.0000000000000006
  0
LINE
  5
A1
  8
0
 10
165.533310375
 20
-219.2677701250001
 30
0.0
 11
170.487747875
 21
-219.2525826250001
 31
-0.0000000000000007
  0
LINE
  5
A2
  8
0
 10
170.487747875
 20
-219.2525826250001
 30
0.0
 11
170.502935375
 21
-214.2576451250001
 31
-0.0000000000000018
  0
LINE
  5
A3
  8
0
 10
165.533310375
 20
-219.2677701250001
 30
0.0
 11
160.578872875
 21
-219.2829576250001
 31
-0.0000000000000039
  0
LINE
  5
A4
  8
0
 10
160.578872875
 20
-219.2829576250001
 30
-0.0000000000000069
 11
160.594060375
 21
-214.2880201250001
 31
-0.0000000000000075
  0
LINE
  5
A5
  8
0
 10
160.5940603750001
 20
-214.2880201250001
 30
-0.0000000000000069
 11
165.548497875
 21
-214.2728326250001
 31
-0.0000000000000031
  0
LINE
  5
A6
  8
0
 10
98.663591625
 20
-214.477863875
 30
0.0
 11
118.481341625
 21
-214.417113875
 31
-0.0000000000000017
  0
LINE
  5
A7
  8
0
 10
71.70274787500001
 20
-119.657582625
 30
0.0
 11
71.68756037500002
 21
-124.652520125
 31
0.0000000000000002
  0
LINE
  5
A8
  8
0
 10
166.125622875
 20
-24.46520762500001
 30
0.0000000000000035
 11
161.171185375
 21
-24.48039512500001
 31
0.0000000000000029
  0
POLYLINE
  5
A9
  8
0
 66
     1
 10
0.0
 20
0.0
 30
-0.0000000000000001
  0
VERTEX
  5
C7
  8
0
 10
276.1900728750001
 20
0.8466423750000014
 30
-0.0000000000000001
  0
VERTEX
  5
C8
  8
0
 10
277.9293606457139
 20
0.6792182744395172
 30
-0.0000000000000001
  0
VERTEX
  5
C9
  8
0
 10
279.600757998009
 20
0.1727134236938551
 30
-0.0000000000000001
  0
VERTEX
  5
CA
  8
0
 10
281.1400340689673
 20
-0.6534074798740217
 30
-0.0000000000000001
  0
VERTEX
  5
CB
  8
0
 10
282.4880353424176
 20
-1.767397073233941
 30
-0.0000000000000001
  0
VERTEX
  5
CC
  8
0
 10
283.5929588853892
 20
-3.126445361045639
 30
-0.0000000000000001
  0
VERTEX
  5
CD
  8
0
 10
284.4123431057738
 20
-4.678324879771577
 30
-0.0000000000000001
  0
VERTEX
  5
CE
  8
0
 10
284.9146995274982
 20
-6.363397769811176
 30
-0.0000000000000001
  0
VERTEX
  5
CF
  8
0
 10
285.080722875
 20
-8.11690762499999
 30
-0.0000000000000001
  0
SEQEND
  5
24B
  8
0
  0
POLYLINE
  5
AA
  8
0
 66
     1
 10
0.0
 20
0.0
 30
-0.000000000000007
  0
VERTEX
  5
D0
  8
0
 10
284.4063978749999
 20
-229.892132625
 30
-0.000000000000007
  0
VERTEX
  5
D1
  8
0
 10
284.2297079641418
 20
-231.6466930449828
 30
-0.000000000000007
  0
VERTEX
  5
D2
  8
0
 10
283.7170948891092
 20
-233.3348772567884
 30
-0.000000000000007
  0
VERTEX
  5
D3
  8
0
 10
282.8882580828987
 20
-234.8918092879018
 30
-0.000000000000007
  0
VERTEX
  5
D4
  8
0
 10
281.7750492791562
 20
-236.2576571135048
 30
-0.000000000000007
  0
VERTEX
  5
D5
  8
0
 10
280.4202484679145
 20
-237.3799319676357
 30
-0.000000000000007
  0
VERTEX
  5
D6
  8
0
 10
278.8759198845689
 20
-238.2155054570294
 30
-0.000000000000007
  0
VERTEX
  5
D7
  8
0
 10
277.2014112105077
 20
-238.7322669610834
 30
-0.000000000000007
  0
VERTEX
  5
D8
  8
0
 10
275.461072875
 20
-238.910357625
 30
-0.000000000000007
  0
SEQEND
  5
24C
  8
0
  0
POLYLINE
  5
AB
  8
0
 66
     1
 10
0.0
 20
0.0
 30
0.0000000000000001
  0
VERTEX
  5
D9
  8
0
 10
55.484047875
 20
-239.584682625
 30
0.0000000000000001
  0
VERTEX
  5
DA
  8
0
 10
53.74476010428617
 20
-239.4172585244395
 30
0.0000000000000001
  0
VERTEX
  5
DB
  8
0
 10
52.07336275199101
 20
-238.9107536736939
 30
0.0000000000000001
  0
VERTEX
  5
DC
  8
0
 10
50.53408668103278
 20
-238.084632770126
 30
0.0000000000000001
  0
VERTEX
  5
DD
  8
0
 10
49.18608540758244
 20
-236.9706431767661
 30
0.0000000000000001
  0
VERTEX
  5
DE
  8
0
 10
48.08116186461088
 20
-235.6115948889544
 30
0.0000000000000001
  0
VERTEX
  5
DF
  8
0
 10
47.26177764422621
 20
-234.0597153702284
 30
0.0000000000000001
  0
VERTEX
  5
E0
  8
0
 10
46.75942122250187
 20
-232.3746424801889
 30
0.0000000000000001
  0
VERTEX
  5
E1
  8
0
 10
46.59339787499999
 20
-230.6211326250001
 30
0.0000000000000001
  0
SEQEND
  5
24D
  8
0
  0
POLYLINE
  5
AC
  8
0
 66
     1
 10
0.0
 20
0.0
 30
-0.0000000000000017
  0
VERTEX
  5
E2
  8
0
 10
47.26772287500001
 20
-8.845907624999995
 30
-0.0000000000000017
  0
VERTEX
  5
E3
  8
0
 10
47.44441278585813
 20
-7.091347205017238
 30
-0.0000000000000017
  0
VERTEX
  5
E4
  8
0
 10
47.95702586089079
 20
-5.403162993211643
 30
-0.0000000000000017
  0
VERTEX
  5
E5
  8
0
 10
48.78586266710124
 20
-3.846230962098289
 30
-0.0000000000000017
  0
VERTEX
  5
E6
  8
0
 10
49.89907147084383
 20
-2.480383136495321
 30
-0.0000000000000017
  0
VERTEX
  5
E7
  8
0
 10
51.25387228208543
 20
-1.358108282364374
 30
-0.0000000000000017
  0
VERTEX
  5
E8
  8
0
 10
52.79820086543107
 20
-0.5225347929707085
 30
-0.0000000000000017
  0
VERTEX
  5
E9
  8
0
 10
54.47270953949223
 20
-0.0057732889167152
 30
-0.0000000000000017
  0
VERTEX
  5
EA
  8
0
 10
56.21304787500001
 20
0.1723173749999999
 30
-0.0000000000000017
  0
SEQEND
  5
24E
  8
0
  0
POLYLINE
  5
AD
  8
0
 66
     1
 10
0.0
 20
0.0
 30
-0.0000000000000035
 70
     1
  0
VERTEX
  5
EB
  8
0
 10
166.8648006145547
 20
-116.2857994063359
 30
-0.0000000000000035
  0
VERTEX
  5
EC
  8
0
 10
166.2496366047262
 20
-116.1465705381309
 30
-0.0000000000000035
  0
VERTEX
  5
ED
  8
0
 10
165.6186175217648
 20
-116.1311786003788
 30
-0.0000000000000035
  0
VERTEX
  5
EE
  8
0
 10
164.995993075149
 20
-116.2402150966154
 30
-0.0000000000000035
  0
VERTEX
  5
EF
  8
0
 10
164.4056903731905
 20
-116.4694898154388
 30
-0.0000000000000035
  0
VERTEX
  5
F0
  8
0
 10
163.87039441768
 20
-116.8101918579833
 30
-0.0000000000000035
  0
VERTEX
  5
F1
  8
0
 10
163.4106763319903
 20
-117.2492282358218
 30
-0.0000000000000035
  0
VERTEX
  5
F2
  8
0
 10
163.0442028243417
 20
-117.7697270271684
 30
-0.0000000000000035
  0
VERTEX
  5
F3
  8
0
 10
162.7850572661123
 20
-118.3516857553708
 30
-0.0000000000000035
  0
VERTEX
  5
F4
  8
0
 10
162.6431984757744
 20
-118.9727400728704
 30
-0.0000000000000035
  0
VERTEX
  5
F5
  8
0
 10
162.6240780070853
 20
-119.6090232105369
 30
-0.0000000000000035
  0
VERTEX
  5
F6
  8
0
 10
162.728430648934
 20
-120.2360831642215
 30
-0.0000000000000035
  0
VERTEX
  5
F7
  8
0
 10
162.9522461878157
 20
-120.8298223715634
 30
-0.0000000000000035
  0
VERTEX
  5
F8
  8
0
 10
163.2869235180884
 20
-121.3674237677971
 30
-0.0000000000000035
  0
VERTEX
  5
F9
  8
0
 10
163.7196011776391
 20
-121.8282276327559
 30
-0.0000000000000035
  0
VERTEX
  5
FA
  8
0
 10
164.2336516066595
 20
-122.1945255323311
 30
-0.0000000000000035
  0
VERTEX
  5
FB
  8
0
 10
164.8093201354453
 20
-122.4522408436642
 30
-0.0000000000000035
  0
VERTEX
  5
FC
  8
0
 10
165.4244841452738
 20
-122.5914697118692
 30
-0.0000000000000035
  0
VERTEX
  5
FD
  8
0
 10
166.0555032282352
 20
-122.6068616496213
 30
-0.0000000000000035
  0
VERTEX
  5
FE
  8
0
 10
166.678127674851
 20
-122.4978251533847
 30
-0.0000000000000035
  0
VERTEX
  5
FF
  8
0
 10
167.2684303768095
 20
-122.2685504345613
 30
-0.0000000000000035
  0
VERTEX
  5
100
  8
0
 10
167.80372633232
 20
-121.9278483920168
 30
-0.0000000000000035
  0
VERTEX
  5
101
  8
0
 10
168.2634444180096
 20
-121.4888120141783
 30
-0.0000000000000035
  0
VERTEX
  5
102
  8
0
 10
168.6299179256583
 20
-120.9683132228317
 30
-0.0000000000000035
  0
VERTEX
  5
103
  8
0
 10
168.8890634838877
 20
-120.3863544946293
 30
-0.0000000000000035
  0
VERTEX
  5
104
  8
0
 10
169.0309222742256
 20
-119.7653001771297
 30
-0.0000000000000035
  0
VERTEX
  5
105
  8
0
 10
169.0500427429147
 20
-119.1290170394632
 30
-0.0000000000000035
  0
VERTEX
  5
106
  8
0
 10
168.945690101066
 20
-118.5019570857786
 30
-0.0000000000000035
  0
VERTEX
  5
107
  8
0
 10
168.7218745621843
 20
-117.9082178784367
 30
-0.0000000000000035
  0
VERTEX
  5
108
  8
0
 10
168.3871972319116
 20
-117.3706164822029
 30
-0.0000000000000035
  0
VERTEX
  5
109
  8
0
 10
167.9545195723609
 20
-116.9098126172442
 30
-0.0000000000000035
  0
VERTEX
  5
10A
  8
0
 10
167.4404691433405
 20
-116.543514717669
 30
-0.0000000000000035
  0
SEQEND
  5
24F
  8
0
  0
POLYLINE
  5
AE
  8
0
 66
     1
 10
0.0
 20
0.0
 30
0.0
 70
     1
  0
VERTEX
  5
10B
  8
0
 10
166.9407381145547
 20
-91.31111190633587
 30
0.0
  0
VERTEX
  5
10C
  8
0
 10
166.3255741047262
 20
-91.1718830381309
 30
0.0
  0
VERTEX
  5
10D
  8
0
 10
165.6945550217648
 20
-91.15649110037879
 30
0.0
  0
VERTEX
  5
10E
  8
0
 10
165.071930575149
 20
-91.2655275966154
 30
0.0
  0
VERTEX
  5
10F
  8
0
 10
164.4816278731905
 20
-91.49480231543876
 30
0.0
  0
VERTEX
  5
110
  8
0
 10
163.94633191768
 20
-91.83550435798324
 30
0.0
  0
VERTEX
  5
111
  8
0
 10
163.4866138319904
 20
-92.27454073582174
 30
0.0
  0
VERTEX
  5
112
  8
0
 10
163.1201403243417
 20
-92.79503952716838
 30
0.0
  0
VERTEX
  5
113
  8
0
 10
162.8609947661123
 20
-93.37699825537081
 30
0.0
  0
VERTEX
  5
114
  8
0
 10
162.7191359757744
 20
-93.99805257287038
 30
0.0
  0
VERTEX
  5
115
  8
0
 10
162.7000155070853
 20
-94.63433571053687
 30
0.0
  0
VERTEX
  5
116
  8
0
 10
162.804368148934
 20
-95.26139566422148
 30
0.0
  0
VERTEX
  5
117
  8
0
 10
163.0281836878157
 20
-95.85513487156337
 30
0.0
  0
VERTEX
  5
118
  8
0
 10
163.3628610180884
 20
-96.39273626779713
 30
0.0
  0
VERTEX
  5
119
  8
0
 10
163.7955386776391
 20
-96.85354013275591
 30
0.0
  0
VERTEX
  5
11A
  8
0
 10
164.3095891066595
 20
-97.21983803233108
 30
0.0
  0
VERTEX
  5
11B
  8
0
 10
164.8852576354453
 20
-97.4775533436642
 30
0.0
  0
VERTEX
  5
11C
  8
0
 10
165.5004216452738
 20
-97.61678221186916
 30
0.0
  0
VERTEX
  5
11D
  8
0
 10
166.1314407282352
 20
-97.63217414962128
 30
0.0
  0
VERTEX
  5
11E
  8
0
 10
166.754065174851
 20
-97.52313765338467
 30
0.0
  0
VERTEX
  5
11F
  8
0
 10
167.3443678768095
 20
-97.29386293456129
 30
0.0
  0
VERTEX
  5
120
  8
0
 10
167.87966383232
 20
-96.95316089201683
 30
0.0
  0
VERTEX
  5
121
  8
0
 10
168.3393819180097
 20
-96.51412451417832
 30
0.0
  0
VERTEX
  5
122
  8
0
 10
168.7058554256583
 20
-95.99362572283167
 30
0.0
  0
VERTEX
  5
123
  8
0
 10
168.9650009838877
 20
-95.41166699462924
 30
0.0
  0
VERTEX
  5
124
  8
0
 10
169.1068597742256
 20
-94.79061267712969
 30
0.0
  0
VERTEX
  5
125
  8
0
 10
169.1259802429147
 20
-94.15432953946318
 30
0.0
  0
VERTEX
  5
126
  8
0
 10
169.0216276010661
 20
-93.52726958577858
 30
0.0
  0
VERTEX
  5
127
  8
0
 10
168.7978120621843
 20
-92.9335303784367
 30
0.0
  0
VERTEX
  5
128
  8
0
 10
168.4631347319116
 20
-92.3959289822029
 30
0.0
  0
VERTEX
  5
129
  8
0
 10
168.0304570723609
 20
-91.93512511724414
 30
0.0
  0
VERTEX
  5
12A
  8
0
 10
167.5164066433405
 20
-91.56882721766898
 30
0.0
  0
SEQEND
  5
250
  8
0
  0
POLYLINE
  5
AF
  8
0
 66
     1
 10
0.0
 20
0.0
 30
0.0
 70
     1
  0
VERTEX
  5
12B
  8
0
 10
191.6369881145547
 20
-116.2098619063359
 30
0.0
  0
VERTEX
  5
12C
  8
0
 10
191.0218241047262
 20
-116.0706330381309
 30
0.0
  0
VERTEX
  5
12D
  8
0
 10
190.3908050217648
 20
-116.0552411003788
 30
0.0
  0
VERTEX
  5
12E
  8
0
 10
189.768180575149
 20
-116.1642775966154
 30
0.0
  0
VERTEX
  5
12F
  8
0
 10
189.1778778731905
 20
-116.3935523154388
 30
0.0
  0
VERTEX
  5
130
  8
0
 10
188.64258191768
 20
-116.7342543579832
 30
0.0
  0
VERTEX
  5
131
  8
0
 10
188.1828638319903
 20
-117.1732907358218
 30
0.0
  0
VERTEX
  5
132
  8
0
 10
187.8163903243417
 20
-117.6937895271684
 30
0.0
  0
VERTEX
  5
133
  8
0
 10
187.5572447661123
 20
-118.2757482553708
 30
0.0
  0
VERTEX
  5
134
  8
0
 10
187.4153859757744
 20
-118.8968025728704
 30
0.0
  0
VERTEX
  5
135
  8
0
 10
187.3962655070853
 20
-119.5330857105369
 30
0.0
  0
VERTEX
  5
136
  8
0
 10
187.5006181489339
 20
-120.1601456642215
 30
0.0
  0
VERTEX
  5
137
  8
0
 10
187.7244336878157
 20
-120.7538848715634
 30
0.0
  0
VERTEX
  5
138
  8
0
 10
188.0591110180884
 20
-121.2914862677971
 30
0.0
  0
VERTEX
  5
139
  8
0
 10
188.4917886776391
 20
-121.7522901327559
 30
0.0
  0
VERTEX
  5
13A
  8
0
 10
189.0058391066595
 20
-122.1185880323311
 30
0.0
  0
VERTEX
  5
13B
  8
0
 10
189.5815076354453
 20
-122.3763033436642
 30
0.0
  0
VERTEX
  5
13C
  8
0
 10
190.1966716452738
 20
-122.5155322118692
 30
0.0
  0
VERTEX
  5
13D
  8
0
 10
190.8276907282352
 20
-122.5309241496213
 30
0.0
  0
VERTEX
  5
13E
  8
0
 10
191.450315174851
 20
-122.4218876533847
 30
0.0
  0
VERTEX
  5
13F
  8
0
 10
192.0406178768095
 20
-122.1926129345613
 30
0.0
  0
VERTEX
  5
140
  8
0
 10
192.57591383232
 20
-121.8519108920168
 30
0.0
  0
VERTEX
  5
141
  8
0
 10
193.0356319180096
 20
-121.4128745141783
 30
0.0
  0
VERTEX
  5
142
  8
0
 10
193.4021054256583
 20
-120.8923757228317
 30
0.0
  0
VERTEX
  5
143
  8
0
 10
193.6612509838877
 20
-120.3104169946293
 30
0.0
  0
VERTEX
  5
144
  8
0
 10
193.8031097742256
 20
-119.6893626771297
 30
0.0
  0
VERTEX
  5
145
  8
0
 10
193.8222302429147
 20
-119.0530795394632
 30
0.0
  0
VERTEX
  5
146
  8
0
 10
193.717877601066
 20
-118.4260195857786
 30
0.0
  0
VERTEX
  5
147
  8
0
 10
193.4940620621843
 20
-117.8322803784367
 30
0.0
  0
VERTEX
  5
148
  8
0
 10
193.1593847319116
 20
-117.2946789822029
 30
0.0
  0
VERTEX
  5
149
  8
0
 10
192.7267070723609
 20
-116.8338751172441
 30
0.0
  0
VERTEX
  5
14A
  8
0
 10
192.2126566433405
 20
-116.467577217669
 30
0.0
  0
SEQEND
  5
251
  8
0
  0
POLYLINE
  5
B0
  8
0
 66
     1
 10
0.0
 20
0.0
 30
-0.0000000000000035
 70
     1
  0
VERTEX
  5
14B
  8
0
 10
166.7888631145548
 20
-141.2604869063359
 30
-0.0000000000000035
  0
VERTEX
  5
14C
  8
0
 10
166.1736991047263
 20
-141.1212580381309
 30
-0.0000000000000035
  0
VERTEX
  5
14D
  8
0
 10
165.5426800217649
 20
-141.1058661003788
 30
-0.0000000000000035
  0
VERTEX
  5
14E
  8
0
 10
164.9200555751491
 20
-141.2149025966154
 30
-0.0000000000000035
  0
VERTEX
  5
14F
  8
0
 10
164.3297528731906
 20
-141.4441773154388
 30
-0.0000000000000035
  0
VERTEX
  5
150
  8
0
 10
163.7944569176801
 20
-141.7848793579833
 30
-0.0000000000000035
  0
VERTEX
  5
151
  8
0
 10
163.3347388319904
 20
-142.2239157358218
 30
-0.0000000000000035
  0
VERTEX
  5
152
  8
0
 10
162.9682653243418
 20
-142.7444145271684
 30
-0.0000000000000035
  0
VERTEX
  5
153
  8
0
 10
162.7091197661124
 20
-143.3263732553708
 30
-0.0000000000000035
  0
VERTEX
  5
154
  8
0
 10
162.5672609757745
 20
-143.9474275728704
 30
-0.0000000000000035
  0
VERTEX
  5
155
  8
0
 10
162.5481405070854
 20
-144.5837107105369
 30
-0.0000000000000035
  0
VERTEX
  5
156
  8
0
 10
162.652493148934
 20
-145.2107706642215
 30
-0.0000000000000035
  0
VERTEX
  5
157
  8
0
 10
162.8763086878157
 20
-145.8045098715634
 30
-0.0000000000000035
  0
VERTEX
  5
158
  8
0
 10
163.2109860180885
 20
-146.3421112677972
 30
-0.0000000000000035
  0
VERTEX
  5
159
  8
0
 10
163.6436636776392
 20
-146.8029151327559
 30
-0.0000000000000035
  0
VERTEX
  5
15A
  8
0
 10
164.1577141066596
 20
-147.1692130323311
 30
-0.0000000000000035
  0
VERTEX
  5
15B
  8
0
 10
164.7333826354453
 20
-147.4269283436642
 30
-0.0000000000000035
  0
VERTEX
  5
15C
  8
0
 10
165.3485466452738
 20
-147.5661572118692
 30
-0.0000000000000035
  0
VERTEX
  5
15D
  8
0
 10
165.9795657282353
 20
-147.5815491496213
 30
-0.0000000000000035
  0
VERTEX
  5
15E
  8
0
 10
166.6021901748511
 20
-147.4725126533847
 30
-0.0000000000000035
  0
VERTEX
  5
15F
  8
0
 10
167.1924928768096
 20
-147.2432379345613
 30
-0.0000000000000035
  0
VERTEX
  5
160
  8
0
 10
167.7277888323201
 20
-146.9025358920168
 30
-0.0000000000000035
  0
VERTEX
  5
161
  8
0
 10
168.1875069180097
 20
-146.4634995141783
 30
-0.0000000000000035
  0
VERTEX
  5
162
  8
0
 10
168.5539804256584
 20
-145.9430007228317
 30
-0.0000000000000035
  0
VERTEX
  5
163
  8
0
 10
168.8131259838878
 20
-145.3610419946293
 30
-0.0000000000000035
  0
VERTEX
  5
164
  8
0
 10
168.9549847742257
 20
-144.7399876771297
 30
-0.0000000000000035
  0
VERTEX
  5
165
  8
0
 10
168.9741052429148
 20
-144.1037045394632
 30
-0.0000000000000035
  0
VERTEX
  5
166
  8
0
 10
168.8697526010661
 20
-143.4766445857786
 30
-0.0000000000000035
  0
VERTEX
  5
167
  8
0
 10
168.6459370621844
 20
-142.8829053784367
 30
-0.0000000000000035
  0
VERTEX
  5
168
  8
0
 10
168.3112597319116
 20
-142.3453039822029
 30
-0.0000000000000035
  0
VERTEX
  5
169
  8
0
 10
167.878582072361
 20
-141.8845001172442
 30
-0.0000000000000035
  0
VERTEX
  5
16A
  8
0
 10
167.3645316433405
 20
-141.518202217669
 30
-0.0000000000000035
  0
SEQEND
  5
252
  8
0
  0
POLYLINE
  5
B1
  8
0
 66
     1
 10
0.0
 20
0.0
 30
-0.0000000000000035
 70
     1
  0
VERTEX
  5
16B
  8
0
 10
142.0926131145547
 20
-116.3617369063359
 30
-0.0000000000000035
  0
VERTEX
  5
16C
  8
0
 10
141.4774491047262
 20
-116.2225080381309
 30
-0.0000000000000035
  0
VERTEX
  5
16D
  8
0
 10
140.8464300217648
 20
-116.2071161003788
 30
-0.0000000000000035
  0
VERTEX
  5
16E
  8
0
 10
140.223805575149
 20
-116.3161525966154
 30
-0.0000000000000035
  0
VERTEX
  5
16F
  8
0
 10
139.6335028731905
 20
-116.5454273154388
 30
-0.0000000000000035
  0
VERTEX
  5
170
  8
0
 10
139.09820691768
 20
-116.8861293579833
 30
-0.0000000000000035
  0
VERTEX
  5
171
  8
0
 10
138.6384888319903
 20
-117.3251657358218
 30
-0.0000000000000035
  0
VERTEX
  5
172
  8
0
 10
138.2720153243417
 20
-117.8456645271684
 30
-0.0000000000000035
  0
VERTEX
  5
173
  8
0
 10
138.0128697661123
 20
-118.4276232553708
 30
-0.0000000000000035
  0
VERTEX
  5
174
  8
0
 10
137.8710109757744
 20
-119.0486775728704
 30
-0.0000000000000035
  0
VERTEX
  5
175
  8
0
 10
137.8518905070853
 20
-119.6849607105369
 30
-0.0000000000000035
  0
VERTEX
  5
176
  8
0
 10
137.9562431489339
 20
-120.3120206642215
 30
-0.0000000000000035
  0
VERTEX
  5
177
  8
0
 10
138.1800586878157
 20
-120.9057598715634
 30
-0.0000000000000035
  0
VERTEX
  5
178
  8
0
 10
138.5147360180884
 20
-121.4433612677971
 30
-0.0000000000000035
  0
VERTEX
  5
179
  8
0
 10
138.9474136776391
 20
-121.9041651327559
 30
-0.0000000000000035
  0
VERTEX
  5
17A
  8
0
 10
139.4614641066595
 20
-122.2704630323311
 30
-0.0000000000000035
  0
VERTEX
  5
17B
  8
0
 10
140.0371326354453
 20
-122.5281783436642
 30
-0.0000000000000035
  0
VERTEX
  5
17C
  8
0
 10
140.6522966452738
 20
-122.6674072118692
 30
-0.0000000000000035
  0
VERTEX
  5
17D
  8
0
 10
141.2833157282352
 20
-122.6827991496213
 30
-0.0000000000000035
  0
VERTEX
  5
17E
  8
0
 10
141.905940174851
 20
-122.5737626533847
 30
-0.0000000000000035
  0
VERTEX
  5
17F
  8
0
 10
142.4962428768095
 20
-122.3444879345613
 30
-0.0000000000000035
  0
VERTEX
  5
180
  8
0
 10
143.03153883232
 20
-122.0037858920168
 30
-0.0000000000000035
  0
VERTEX
  5
181
  8
0
 10
143.4912569180096
 20
-121.5647495141783
 30
-0.0000000000000035
  0
VERTEX
  5
182
  8
0
 10
143.8577304256583
 20
-121.0442507228317
 30
-0.0000000000000035
  0
VERTEX
  5
183
  8
0
 10
144.1168759838877
 20
-120.4622919946293
 30
-0.0000000000000035
  0
VERTEX
  5
184
  8
0
 10
144.2587347742256
 20
-119.8412376771297
 30
-0.0000000000000035
  0
VERTEX
  5
185
  8
0
 10
144.2778552429147
 20
-119.2049545394632
 30
-0.0000000000000035
  0
VERTEX
  5
186
  8
0
 10
144.173502601066
 20
-118.5778945857786
 30
-0.0000000000000035
  0
VERTEX
  5
187
  8
0
 10
143.9496870621843
 20
-117.9841553784367
 30
-0.0000000000000035
  0
VERTEX
  5
188
  8
0
 10
143.6150097319116
 20
-117.4465539822029
 30
-0.0000000000000035
  0
VERTEX
  5
189
  8
0
 10
143.1823320723609
 20
-116.9857501172442
 30
-0.0000000000000035
  0
VERTEX
  5
18A
  8
0
 10
142.6682816433405
 20
-116.619452217669
 30
-0.0000000000000035
  0
SEQEND
  5
253
  8
0
  0
POLYLINE
  5
B2
  8
0
 66
     1
 10
0.0
 20
0.0
 30
0.0000000000000035
 70
     1
  0
VERTEX
  5
18B
  8
0
 10
176.5699172900421
 20
-105.9780743798737
 30
0.0000000000000035
  0
VERTEX
  5
18C
  8
0
 10
176.0967142055587
 20
-105.8709752504853
 30
0.0000000000000035
  0
VERTEX
  5
18D
  8
0
 10
175.611314910973
 20
-105.8591352983683
 30
0.0000000000000035
  0
VERTEX
  5
18E
  8
0
 10
175.1323730289608
 20
-105.9430095262426
 30
0.0000000000000035
  0
VERTEX
  5
18F
  8
0
 10
174.6782940274543
 20
-106.1193746945683
 30
0.0000000000000035
  0
VERTEX
  5
190
  8
0
 10
174.2665279078308
 20
-106.3814531888333
 30
0.0000000000000035
  0
VERTEX
  5
191
  8
0
 10
173.9128986111465
 20
-106.7191734794783
 30
0.0000000000000035
  0
VERTEX
  5
192
  8
0
 10
173.6309959129552
 20
-107.1195571651295
 30
0.0000000000000035
  0
VERTEX
  5
193
  8
0
 10
173.4316531758557
 20
-107.5672177252852
 30
0.0000000000000035
  0
VERTEX
  5
194
  8
0
 10
173.3225310294419
 20
-108.0449518156695
 30
0.0000000000000035
  0
VERTEX
  5
195
  8
0
 10
173.3078229766041
 20
-108.5344003831053
 30
0.0000000000000035
  0
VERTEX
  5
196
  8
0
 10
173.3880942395646
 20
-109.0167541936319
 30
0.0000000000000035
  0
VERTEX
  5
197
  8
0
 10
173.5602600387044
 20
-109.473476660818
 30
0.0000000000000035
  0
VERTEX
  5
198
  8
0
 10
173.8177041389142
 20
-109.8870161963824
 30
0.0000000000000035
  0
VERTEX
  5
199
  8
0
 10
174.1505331077993
 20
-110.2414807078892
 30
0.0000000000000035
  0
VERTEX
  5
19A
  8
0
 10
174.5459565147381
 20
-110.523248322947
 30
0.0000000000000035
  0
VERTEX
  5
19B
  8
0
 10
174.988778459958
 20
-110.7214908701263
 30
0.0000000000000035
  0
VERTEX
  5
19C
  8
0
 10
175.4619815444414
 20
-110.8285899995147
 30
0.0000000000000035
  0
VERTEX
  5
19D
  8
0
 10
175.9473808390271
 20
-110.8404299516318
 30
0.0000000000000035
  0
VERTEX
  5
19E
  8
0
 10
176.4263227210393
 20
-110.7565557237574
 30
0.0000000000000035
  0
VERTEX
  5
19F
  8
0
 10
176.8804017225458
 20
-110.5801905554318
 30
0.0000000000000035
  0
VERTEX
  5
1A0
  8
0
 10
177.2921678421692
 20
-110.3181120611668
 30
0.0000000000000035
  0
VERTEX
  5
1A1
  8
0
 10
177.6457971388536
 20
-109.9803917705218
 30
0.0000000000000035
  0
VERTEX
  5
1A2
  8
0
 10
177.9276998370449
 20
-109.5800080848705
 30
0.0000000000000035
  0
VERTEX
  5
1A3
  8
0
 10
178.1270425741444
 20
-109.1323475247148
 30
0.0000000000000035
  0
VERTEX
  5
1A4
  8
0
 10
178.2361647205582
 20
-108.6546134343305
 30
0.0000000000000035
  0
VERTEX
  5
1A5
  8
0
 10
178.2508727733959
 20
-108.1651648668948
 30
0.0000000000000035
  0
VERTEX
  5
1A6
  8
0
 10
178.1706015104355
 20
-107.6828110563681
 30
0.0000000000000035
  0
VERTEX
  5
1A7
  8
0
 10
177.9984357112957
 20
-107.2260885891821
 30
0.0000000000000035
  0
VERTEX
  5
1A8
  8
0
 10
177.7409916110859
 20
-106.8125490536176
 30
0.0000000000000035
  0
VERTEX
  5
1A9
  8
0
 10
177.4081626422008
 20
-106.4580845421109
 30
0.0000000000000035
  0
VERTEX
  5
1AA
  8
0
 10
177.0127392352619
 20
-106.1763169270531
 30
0.0000000000000035
  0
SEQEND
  5
254
  8
0
  0
POLYLINE
  5
B3
  8
0
 66
     1
 10
0.0
 20
0.0
 30
0.0
 70
     1
  0
VERTEX
  5
1AB
  8
0
 10
197.612786567279
 20
-85.28723248802866
 30
0.0
  0
VERTEX
  5
1AC
  8
0
 10
196.9976225574505
 20
-85.1480036198237
 30
0.0
  0
VERTEX
  5
1AD
  8
0
 10
196.366603474489
 20
-85.13261168207158
 30
0.0
  0
VERTEX
  5
1AE
  8
0
 10
195.7439790278733
 20
-85.2416481783082
 30
0.0
  0
VERTEX
  5
1AF
  8
0
 10
195.1536763259148
 20
-85.47092289713156
 30
0.0
  0
VERTEX
  5
1B0
  8
0
 10
194.6183803704043
 20
-85.81162493967604
 30
0.0
  0
VERTEX
  5
1B1
  8
0
 10
194.1586622847146
 20
-86.25066131751454
 30
0.0
  0
VERTEX
  5
1B2
  8
0
 10
193.792188777066
 20
-86.77116010886118
 30
0.0
  0
VERTEX
  5
1B3
  8
0
 10
193.5330432188366
 20
-87.3531188370636
 30
0.0
  0
VERTEX
  5
1B4
  8
0
 10
193.3911844284987
 20
-87.97417315456318
 30
0.0
  0
VERTEX
  5
1B5
  8
0
 10
193.3720639598096
 20
-88.61045629222967
 30
0.0
  0
VERTEX
  5
1B6
  8
0
 10
193.4764166016582
 20
-89.23751624591428
 30
0.0
  0
VERTEX
  5
1B7
  8
0
 10
193.7002321405399
 20
-89.83125545325616
 30
0.0
  0
VERTEX
  5
1B8
  8
0
 10
194.0349094708127
 20
-90.36885684948993
 30
0.0
  0
VERTEX
  5
1B9
  8
0
 10
194.4675871303633
 20
-90.8296607144487
 30
0.0
  0
VERTEX
  5
1BA
  8
0
 10
194.9816375593838
 20
-91.19595861402388
 30
0.0
  0
VERTEX
  5
1BB
  8
0
 10
195.5573060881695
 20
-91.453673925357
 30
0.0
  0
VERTEX
  5
1BC
  8
0
 10
196.172470097998
 20
-91.59290279356196
 30
0.0
  0
VERTEX
  5
1BD
  8
0
 10
196.8034891809595
 20
-91.60829473131407
 30
0.0
  0
VERTEX
  5
1BE
  8
0
 10
197.4261136275753
 20
-91.49925823507746
 30
0.0
  0
VERTEX
  5
1BF
  8
0
 10
198.0164163295337
 20
-91.26998351625409
 30
0.0
  0
VERTEX
  5
1C0
  8
0
 10
198.5517122850443
 20
-90.92928147370962
 30
0.0
  0
VERTEX
  5
1C1
  8
0
 10
199.0114303707339
 20
-90.49024509587112
 30
0.0
  0
VERTEX
  5
1C2
  8
0
 10
199.3779038783825
 20
-89.96974630452446
 30
0.0
  0
VERTEX
  5
1C3
  8
0
 10
199.637049436612
 20
-89.38778757632204
 30
0.0
  0
VERTEX
  5
1C4
  8
0
 10
199.7789082269499
 20
-88.76673325882248
 30
0.0
  0
VERTEX
  5
1C5
  8
0
 10
199.7980286956389
 20
-88.13045012115599
 30
0.0
  0
VERTEX
  5
1C6
  8
0
 10
199.6936760537903
 20
-87.50339016747138
 30
0.0
  0
VERTEX
  5
1C7
  8
0
 10
199.4698605149086
 20
-86.9096509601295
 30
0.0
  0
VERTEX
  5
1C8
  8
0
 10
199.1351831846358
 20
-86.3720495638957
 30
0.0
  0
VERTEX
  5
1C9
  8
0
 10
198.7025055250852
 20
-85.91124569893694
 30
0.0
  0
VERTEX
  5
1CA
  8
0
 10
198.1884550960647
 20
-85.54494779936178
 30
0.0
  0
SEQEND
  5
255
  8
0
  0
POLYLINE
  5
B4
  8
0
 66
     1
 10
0.0
 20
0.0
 30
0.0
 70
     1
  0
VERTEX
  5
1CB
  8
0
 10
136.3047503860178
 20
-85.47516821221598
 30
0.0
  0
VERTEX
  5
1CC
  8
0
 10
135.6895863761893
 20
-85.33593934401101
 30
0.0
  0
VERTEX
  5
1CD
  8
0
 10
135.0585672932279
 20
-85.3205474062589
 30
0.0
  0
VERTEX
  5
1CE
  8
0
 10
134.4359428466121
 20
-85.42958390249551
 30
0.0
  0
VERTEX
  5
1CF
  8
0
 10
133.8456401446536
 20
-85.65885862131887
 30
0.0
  0
VERTEX
  5
1D0
  8
0
 10
133.3103441891431
 20
-85.99956066386335
 30
0.0
  0
VERTEX
  5
1D1
  8
0
 10
132.8506261034534
 20
-86.43859704170185
 30
0.0
  0
VERTEX
  5
1D2
  8
0
 10
132.4841525958048
 20
-86.9590958330485
 30
0.0
  0
VERTEX
  5
1D3
  8
0
 10
132.2250070375754
 20
-87.54105456125092
 30
0.0
  0
VERTEX
  5
1D4
  8
0
 10
132.0831482472375
 20
-88.16210887875049
 30
0.0
  0
VERTEX
  5
1D5
  8
0
 10
132.0640277785484
 20
-88.79839201641698
 30
0.0
  0
VERTEX
  5
1D6
  8
0
 10
132.1683804203971
 20
-89.42545197010159
 30
0.0
  0
VERTEX
  5
1D7
  8
0
 10
132.3921959592788
 20
-90.01919117744347
 30
0.0
  0
VERTEX
  5
1D8
  8
0
 10
132.7268732895515
 20
-90.55679257367724
 30
0.0
  0
VERTEX
  5
1D9
  8
0
 10
133.1595509491022
 20
-91.01759643863602
 30
0.0
  0
VERTEX
  5
1DA
  8
0
 10
133.6736013781226
 20
-91.38389433821119
 30
0.0
  0
VERTEX
  5
1DB
  8
0
 10
134.2492699069084
 20
-91.6416096495443
 30
0.0
  0
VERTEX
  5
1DC
  8
0
 10
134.8644339167369
 20
-91.78083851774927
 30
0.0
  0
VERTEX
  5
1DD
  8
0
 10
135.4954529996983
 20
-91.79623045550139
 30
0.0
  0
VERTEX
  5
1DE
  8
0
 10
136.1180774463141
 20
-91.68719395926477
 30
0.0
  0
VERTEX
  5
1DF
  8
0
 10
136.7083801482726
 20
-91.4579192404414
 30
0.0
  0
VERTEX
  5
1E0
  8
0
 10
137.2436761037831
 20
-91.11721719789693
 30
0.0
  0
VERTEX
  5
1E1
  8
0
 10
137.7033941894727
 20
-90.67818082005843
 30
0.0
  0
VERTEX
  5
1E2
  8
0
 10
138.0698676971214
 20
-90.15768202871178
 30
0.0
  0
VERTEX
  5
1E3
  8
0
 10
138.3290132553508
 20
-89.57572330050935
 30
0.0
  0
VERTEX
  5
1E4
  8
0
 10
138.4708720456887
 20
-88.9546689830098
 30
0.0
  0
VERTEX
  5
1E5
  8
0
 10
138.4899925143778
 20
-88.31838584534329
 30
0.0
  0
VERTEX
  5
1E6
  8
0
 10
138.3856398725291
 20
-87.69132589165869
 30
0.0
  0
VERTEX
  5
1E7
  8
0
 10
138.1618243336474
 20
-87.09758668431681
 30
0.0
  0
VERTEX
  5
1E8
  8
0
 10
137.8271470033746
 20
-86.55998528808301
 30
0.0
  0
VERTEX
  5
1E9
  8
0
 10
137.394469343824
 20
-86.09918142312425
 30
0.0
  0
VERTEX
  5
1EA
  8
0
 10
136.8804189148036
 20
-85.73288352354909
 30
0.0
  0
SEQEND
  5
256
  8
0
  0
POLYLINE
  5
B5
  8
0
 66
     1
 10
0.0
 20
0.0
 30
0.0000000000000034
 70
     1
  0
VERTEX
  5
1EB
  8
0
 10
136.1168146618305
 20
-147.2843663246431
 30
0.0000000000000034
  0
VERTEX
  5
1EC
  8
0
 10
135.501650652002
 20
-147.1451374564381
 30
0.0000000000000034
  0
VERTEX
  5
1ED
  8
0
 10
134.8706315690406
 20
-147.129745518686
 30
0.0000000000000034
  0
VERTEX
  5
1EE
  8
0
 10
134.2480071224248
 20
-147.2387820149226
 30
0.0000000000000034
  0
VERTEX
  5
1EF
  8
0
 10
133.6577044204663
 20
-147.468056733746
 30
0.0000000000000034
  0
VERTEX
  5
1F0
  8
0
 10
133.1224084649558
 20
-147.8087587762905
 30
0.0000000000000034
  0
VERTEX
  5
1F1
  8
0
 10
132.6626903792661
 20
-148.247795154129
 30
0.0000000000000034
  0
VERTEX
  5
1F2
  8
0
 10
132.2962168716175
 20
-148.7682939454756
 30
0.0000000000000034
  0
VERTEX
  5
1F3
  8
0
 10
132.0370713133881
 20
-149.350252673678
 30
0.0000000000000034
  0
VERTEX
  5
1F4
  8
0
 10
131.8952125230502
 20
-149.9713069911776
 30
0.0000000000000034
  0
VERTEX
  5
1F5
  8
0
 10
131.8760920543611
 20
-150.6075901288441
 30
0.0000000000000034
  0
VERTEX
  5
1F6
  8
0
 10
131.9804446962098
 20
-151.2346500825287
 30
0.0000000000000034
  0
VERTEX
  5
1F7
  8
0
 10
132.2042602350915
 20
-151.8283892898706
 30
0.0000000000000034
  0
VERTEX
  5
1F8
  8
0
 10
132.5389375653642
 20
-152.3659906861044
 30
0.0000000000000034
  0
VERTEX
  5
1F9
  8
0
 10
132.9716152249149
 20
-152.8267945510631
 30
0.0000000000000034
  0
VERTEX
  5
1FA
  8
0
 10
133.4856656539353
 20
-153.1930924506383
 30
0.0000000000000034
  0
VERTEX
  5
1FB
  8
0
 10
134.0613341827211
 20
-153.4508077619714
 30
0.0000000000000034
  0
VERTEX
  5
1FC
  8
0
 10
134.6764981925496
 20
-153.5900366301764
 30
0.0000000000000034
  0
VERTEX
  5
1FD
  8
0
 10
135.307517275511
 20
-153.6054285679285
 30
0.0000000000000034
  0
VERTEX
  5
1FE
  8
0
 10
135.9301417221268
 20
-153.4963920716919
 30
0.0000000000000034
  0
VERTEX
  5
1FF
  8
0
 10
136.5204444240853
 20
-153.2671173528685
 30
0.0000000000000034
  0
VERTEX
  5
200
  8
0
 10
137.0557403795958
 20
-152.926415310324
 30
0.0000000000000034
  0
VERTEX
  5
201
  8
0
 10
137.5154584652854
 20
-152.4873789324855
 30
0.0000000000000034
  0
VERTEX
  5
202
  8
0
 10
137.8819319729341
 20
-151.9668801411389
 30
0.0000000000000034
  0
VERTEX
  5
203
  8
0
 10
138.1410775311635
 20
-151.3849214129365
 30
0.0000000000000034
  0
VERTEX
  5
204
  8
0
 10
138.2829363215014
 20
-150.7638670954369
 30
0.0000000000000034
  0
VERTEX
  5
205
  8
0
 10
138.3020567901905
 20
-150.1275839577704
 30
0.0000000000000034
  0
VERTEX
  5
206
  8
0
 10
138.1977041483418
 20
-149.5005240040858
 30
0.0000000000000034
  0
VERTEX
  5
207
  8
0
 10
137.9738886094601
 20
-148.9067847967439
 30
0.0000000000000034
  0
VERTEX
  5
208
  8
0
 10
137.6392112791874
 20
-148.3691834005101
 30
0.0000000000000034
  0
VERTEX
  5
209
  8
0
 10
137.2065336196367
 20
-147.9083795355514
 30
0.0000000000000034
  0
VERTEX
  5
20A
  8
0
 10
136.6924831906163
 20
-147.5420816359762
 30
0.0000000000000034
  0
SEQEND
  5
257
  8
0
  0
POLYLINE
  5
B6
  8
0
 66
     1
 10
0.0
 20
0.0
 30
0.0
 70
     1
  0
VERTEX
  5
20B
  8
0
 10
197.4248508430917
 20
-147.0964306004558
 30
0.0
  0
VERTEX
  5
20C
  8
0
 10
196.8096868332632
 20
-146.9572017322509
 30
0.0
  0
VERTEX
  5
20D
  8
0
 10
196.1786677503018
 20
-146.9418097944987
 30
0.0
  0
VERTEX
  5
20E
  8
0
 10
195.556043303686
 20
-147.0508462907354
 30
0.0
  0
VERTEX
  5
20F
  8
0
 10
194.9657406017275
 20
-147.2801210095587
 30
0.0
  0
VERTEX
  5
210
  8
0
 10
194.430444646217
 20
-147.6208230521032
 30
0.0
  0
VERTEX
  5
211
  8
0
 10
193.9707265605274
 20
-148.0598594299418
 30
0.0
  0
VERTEX
  5
212
  8
0
 10
193.6042530528787
 20
-148.5803582212884
 30
0.0
  0
VERTEX
  5
213
  8
0
 10
193.3451074946493
 20
-149.1623169494908
 30
0.0
  0
VERTEX
  5
214
  8
0
 10
193.2032487043114
 20
-149.7833712669904
 30
0.0
  0
VERTEX
  5
215
  8
0
 10
193.1841282356224
 20
-150.4196544046569
 30
0.0
  0
VERTEX
  5
216
  8
0
 10
193.288480877471
 20
-151.0467143583415
 30
0.0
  0
VERTEX
  5
217
  8
0
 10
193.5122964163527
 20
-151.6404535656833
 30
0.0
  0
VERTEX
  5
218
  8
0
 10
193.8469737466255
 20
-152.1780549619171
 30
0.0
  0
VERTEX
  5
219
  8
0
 10
194.2796514061761
 20
-152.6388588268759
 30
0.0
  0
VERTEX
  5
21A
  8
0
 10
194.7937018351965
 20
-153.005156726451
 30
0.0
  0
VERTEX
  5
21B
  8
0
 10
195.3693703639823
 20
-153.2628720377842
 30
0.0
  0
VERTEX
  5
21C
  8
0
 10
195.9845343738108
 20
-153.4021009059891
 30
0.0
  0
VERTEX
  5
21D
  8
0
 10
196.6155534567722
 20
-153.4174928437413
 30
0.0
  0
VERTEX
  5
21E
  8
0
 10
197.238177903388
 20
-153.3084563475046
 30
0.0
  0
VERTEX
  5
21F
  8
0
 10
197.8284806053465
 20
-153.0791816286813
 30
0.0
  0
VERTEX
  5
220
  8
0
 10
198.363776560857
 20
-152.7384795861368
 30
0.0
  0
VERTEX
  5
221
  8
0
 10
198.8234946465467
 20
-152.2994432082983
 30
0.0
  0
VERTEX
  5
222
  8
0
 10
199.1899681541953
 20
-151.7789444169516
 30
0.0
  0
VERTEX
  5
223
  8
0
 10
199.4491137124247
 20
-151.1969856887492
 30
0.0
  0
VERTEX
  5
224
  8
0
 10
199.5909725027626
 20
-150.5759313712497
 30
0.0
  0
VERTEX
  5
225
  8
0
 10
199.6100929714517
 20
-149.9396482335831
 30
0.0
  0
VERTEX
  5
226
  8
0
 10
199.5057403296031
 20
-149.3125882798985
 30
0.0
  0
VERTEX
  5
227
  8
0
 10
199.2819247907213
 20
-148.7188490725567
 30
0.0
  0
VERTEX
  5
228
  8
0
 10
198.9472474604486
 20
-148.1812476763229
 30
0.0
  0
VERTEX
  5
229
  8
0
 10
198.5145698008979
 20
-147.7204438113641
 30
0.0
  0
VERTEX
  5
22A
  8
0
 10
198.0005193718775
 20
-147.354145911789
 30
0.0
  0
SEQEND
  5
258
  8
0
  0
LINE
  5
B7
  8
0
 10
165.548497875
 20
-214.2728326250001
 30
0.0
 11
170.502935375
 21
-214.2576451250001
 31
-0.0000000000000018
  0
LINE
  5
B8
  8
0
 10
212.615654125
 20
-214.128551375
 30
0.0
 11
232.433404125
 21
-214.0678013750001
 31
-0.0000000000000017
  0
LINE
  5
B9
  8
0
 10
259.7663416250001
 20
-186.512113875
 30
0.0000000000000069
 11
259.827091625
 21
-166.5323638750001
 31
-0.0000000000000007
  0
LINE
  5
BA
  8
0
 10
259.9561853750001
 20
-124.075395125
 30
-0.0000000000000069
 11
259.9865603750001
 21
-114.085520125
 31
-0.000000000000003
  0
POLYLINE
  5
BB
  8
0
 66
     1
 10
0.0
 20
0.0
 30
-0.0000000000000035
 70
     1
  0
VERTEX
  5
22B
  8
0
 10
166.9984506145547
 20
-72.33034940633586
 30
-0.0000000000000035
  0
VERTEX
  5
22C
  8
0
 10
166.3832866047262
 20
-72.1911205381309
 30
-0.0000000000000035
  0
VERTEX
  5
22D
  8
0
 10
165.7522675217648
 20
-72.17572860037878
 30
-0.0000000000000035
  0
VERTEX
  5
22E
  8
0
 10
165.129643075149
 20
-72.28476509661539
 30
-0.0000000000000035
  0
VERTEX
  5
22F
  8
0
 10
164.5393403731905
 20
-72.51403981543876
 30
-0.0000000000000035
  0
VERTEX
  5
230
  8
0
 10
164.00404441768
 20
-72.85474185798323
 30
-0.0000000000000035
  0
VERTEX
  5
231
  8
0
 10
163.5443263319903
 20
-73.29377823582173
 30
-0.0000000000000035
  0
VERTEX
  5
232
  8
0
 10
163.1778528243417
 20
-73.81427702716837
 30
-0.0000000000000035
  0
VERTEX
  5
233
  8
0
 10
162.9187072661123
 20
-74.3962357553708
 30
-0.0000000000000035
  0
VERTEX
  5
234
  8
0
 10
162.7768484757744
 20
-75.01729007287037
 30
-0.0000000000000035
  0
VERTEX
  5
235
  8
0
 10
162.7577280070853
 20
-75.65357321053686
 30
-0.0000000000000035
  0
VERTEX
  5
236
  8
0
 10
162.862080648934
 20
-76.28063316422147
 30
-0.0000000000000035
  0
VERTEX
  5
237
  8
0
 10
163.0858961878156
 20
-76.87437237156334
 30
-0.0000000000000035
  0
VERTEX
  5
238
  8
0
 10
163.4205735180884
 20
-77.41197376779712
 30
-0.0000000000000035
  0
VERTEX
  5
239
  8
0
 10
163.8532511776391
 20
-77.8727776327559
 30
-0.0000000000000035
  0
VERTEX
  5
23A
  8
0
 10
164.3673016066595
 20
-78.23907553233106
 30
-0.0000000000000035
  0
VERTEX
  5
23B
  8
0
 10
164.9429701354453
 20
-78.49679084366419
 30
-0.0000000000000035
  0
VERTEX
  5
23C
  8
0
 10
165.5581341452738
 20
-78.63601971186914
 30
-0.0000000000000035
  0
VERTEX
  5
23D
  8
0
 10
166.1891532282352
 20
-78.65141164962127
 30
-0.0000000000000035
  0
VERTEX
  5
23E
  8
0
 10
166.811777674851
 20
-78.54237515338465
 30
-0.0000000000000035
  0
VERTEX
  5
23F
  8
0
 10
167.4020803768095
 20
-78.31310043456128
 30
-0.0000000000000035
  0
VERTEX
  5
240
  8
0
 10
167.93737633232
 20
-77.9723983920168
 30
-0.0000000000000035
  0
VERTEX
  5
241
  8
0
 10
168.3970944180096
 20
-77.5333620141783
 30
-0.0000000000000035
  0
VERTEX
  5
242
  8
0
 10
168.7635679256583
 20
-77.01286322283165
 30
-0.0000000000000035
  0
VERTEX
  5
243
  8
0
 10
169.0227134838877
 20
-76.43090449462923
 30
-0.0000000000000035
  0
VERTEX
  5
244
  8
0
 10
169.1645722742256
 20
-75.80985017712968
 30
-0.0000000000000035
  0
VERTEX
  5
245
  8
0
 10
169.1836927429147
 20
-75.17356703946317
 30
-0.0000000000000035
  0
VERTEX
  5
246
  8
0
 10
169.079340101066
 20
-74.54650708577857
 30
-0.0000000000000035
  0
VERTEX
  5
247
  8
0
 10
168.8555245621843
 20
-73.95276787843669
 30
-0.0000000000000035
  0
VERTEX
  5
248
  8
0
 10
168.5208472319115
 20
-73.41516648220289
 30
-0.0000000000000035
  0
VERTEX
  5
249
  8
0
 10
168.0881695723609
 20
-72.95436261724414
 30
-0.0000000000000035
  0
VERTEX
  5
24A
  8
0
 10
167.5741191433405
 20
-72.58806471766897
 30
-0.0000000000000035
  0
SEQEND
  5
259
  8
0
  0
ENDSEC
  0
EOF
