  0
SECTION
  2
HEADER
  9
$ACADVER
  1
AC1009
  9
$DWGCODEPAGE
  3
ansi_1252
  9
$INSBASE
 10
0.0
 20
0.0
 30
0.0
  9
$EXTMIN
 10
-150.0
 20
-240.0
 30
0.0
  9
$EXTMAX
 10
360.0
 20
0.0000000000000162
 30
0.0000000000000147
  9
$LIMMIN
 10
0.0
 20
0.0
  9
$LIMMAX
 10
420.0
 20
297.0
  9
$ORTHOMODE
 70
     0
  9
$REGENMODE
 70
     1
  9
$FILLMODE
 70
     1
  9
$QTEXTMODE
 70
     0
  9
$MIRRTEXT
 70
     1
  9
$DRAGMODE
 70
     2
  9
$LTSCALE
 40
1.0
  9
$OSMODE
 70
    37
  9
$ATTMODE
 70
     1
  9
$TEXTSIZE
 40
2.5
  9
$TRACEWID
 40
1.0
  9
$TEXTSTYLE
  7
STANDARD
  9
$CLAYER
  8
0
  9
$CELTYPE
  6
BYLAYER
  9
$CECOLOR
 62
   256
  9
$DIMSCALE
 40
1.0
  9
$DIMASZ
 40
2.5
  9
$DIMEXO
 40
0.625
  9
$DIMDLI
 40
3.75
  9
$DIMRND
 40
0.0
  9
$DIMDLE
 40
0.0
  9
$DIMEXE
 40
1.25
  9
$DIMTP
 40
0.0
  9
$DIMTM
 40
0.0
  9
$DIMTXT
 40
2.5
  9
$DIMCEN
 40
2.5
  9
$DIMTSZ
 40
0.0
  9
$DIMTOL
 70
     0
  9
$DIMLIM
 70
     0
  9
$DIMTIH
 70
     1
  9
$DIMTOH
 70
     0
  9
$DIMSE1
 70
     0
  9
$DIMSE2
 70
     0
  9
$DIMTAD
 70
     1
  9
$DIMZIN
 70
     8
  9
$DIMBLK
  1

  9
$DIMASO
 70
     1
  9
$DIMSHO
 70
     1
  9
$DIMPOST
  1
mm
  9
$DIMAPOST
  1

  9
$DIMALT
 70
     0
  9
$DIMALTD
 70
     3
  9
$DIMALTF
 40
0.0393700787401575
  9
$DIMLFAC
 40
1.0
  9
$DIMTOFL
 70
     1
  9
$DIMTVP
 40
0.0
  9
$DIMTIX
 70
     0
  9
$DIMSOXD
 70
     0
  9
$DIMSAH
 70
     0
  9
$DIMBLK1
  1

  9
$DIMBLK2
  1

  9
$DIMSTYLE
  2
ISO-25
  9
$DIMCLRD
 70
     0
  9
$DIMCLRE
 70
     0
  9
$DIMCLRT
 70
     0
  9
$DIMTFAC
 40
1.0
  9
$DIMGAP
 40
0.625
  9
$LUNITS
 70
     2
  9
$LUPREC
 70
     4
  9
$SKETCHINC
 40
1.0
  9
$FILLETRAD
 40
10.0
  9
$AUNITS
 70
     0
  9
$AUPREC
 70
     0
  9
$MENU
  1
.
  9
$ELEVATION
 40
0.0
  9
$PELEVATION
 40
0.0
  9
$THICKNESS
 40
0.0
  9
$LIMCHECK
 70
     0
  9
$CHAMFERA
 40
0.0
  9
$CHAMFERB
 40
0.0
  9
$SKPOLY
 70
     0
  9
$TDCREATE
 40
2459649.592186134
  9
$TDUPDATE
 40
2459649.592187107
  9
$TDINDWG
 40
0.0000000116
  9
$TDUSRTIMER
 40
0.0000000116
  9
$USRTIMER
 70
     1
  9
$ANGBASE
 50
0.0
  9
$ANGDIR
 70
     0
  9
$PDMODE
 70
     0
  9
$PDSIZE
 40
0.0
  9
$PLINEWID
 40
0.0
  9
$COORDS
 70
     1
  9
$SPLFRAME
 70
     0
  9
$SPLINETYPE
 70
     6
  9
$SPLINESEGS
 70
     8
  9
$ATTDIA
 70
     0
  9
$ATTREQ
 70
     1
  9
$HANDLING
 70
     1
  9
$HANDSEED
  5
13C
  9
$SURFTAB1
 70
     6
  9
$SURFTAB2
 70
     6
  9
$SURFTYPE
 70
     6
  9
$SURFU
 70
     6
  9
$SURFV
 70
     6
  9
$UCSNAME
  2

  9
$UCSORG
 10
0.0
 20
0.0
 30
0.0
  9
$UCSXDIR
 10
1.0
 20
0.0
 30
0.0
  9
$UCSYDIR
 10
0.0
 20
1.0
 30
0.0
  9
$PUCSNAME
  2

  9
$PUCSORG
 10
0.0
 20
0.0
 30
0.0
  9
$PUCSXDIR
 10
1.0
 20
0.0
 30
0.0
  9
$PUCSYDIR
 10
0.0
 20
1.0
 30
0.0
  9
$USERI1
 70
     0
  9
$USERI2
 70
     0
  9
$USERI3
 70
     0
  9
$USERI4
 70
     0
  9
$USERI5
 70
     0
  9
$USERR1
 40
0.0
  9
$USERR2
 40
0.0
  9
$USERR3
 40
0.0
  9
$USERR4
 40
0.0
  9
$USERR5
 40
0.0
  9
$WORLDVIEW
 70
     1
  9
$SHADEDGE
 70
     3
  9
$SHADEDIF
 70
    70
  9
$TILEMODE
 70
     1
  9
$MAXACTVP
 70
    64
  9
$PLIMCHECK
 70
     0
  9
$PEXTMIN
 10
1.000000000000000E+20
 20
1.000000000000000E+20
 30
1.000000000000000E+20
  9
$PEXTMAX
 10
-1.000000000000000E+20
 20
-1.000000000000000E+20
 30
-1.000000000000000E+20
  9
$PLIMMIN
 10
0.0
 20
0.0
  9
$PLIMMAX
 10
420.0
 20
297.0
  9
$UNITMODE
 70
     0
  9
$VISRETAIN
 70
     1
  9
$PLINEGEN
 70
     0
  9
$PSLTSCALE
 70
     1
  0
ENDSEC
  0
SECTION
  2
TABLES
  0
TABLE
  2
VPORT
 70
     1
  0
VPORT
  2
*ACTIVE
 70
     0
 10
0.0
 20
0.0
 11
1.0
 21
1.0
 12
105.0
 22
-120.0
 13
0.0
 23
0.0
 14
10.0
 24
10.0
 15
10.0
 25
10.0
 16
0.0
 26
0.0
 36
1.0
 17
0.0
 27
0.0
 37
0.0
 40
240.0
 41
2.125
 42
50.0
 43
0.0
 44
0.0
 50
0.0
 51
0.0
 71
     0
 72
   100
 73
     1
 74
     3
 75
     0
 76
     0
 77
     0
 78
     0
  0
ENDTAB
  0
TABLE
  2
LTYPE
 70
     1
  0
LTYPE
  2
CONTINUOUS
 70
     0
  3
Solid line
 72
    65
 73
     0
 40
0.0
  0
ENDTAB
  0
TABLE
  2
LAYER
 70
     1
  0
LAYER
  2
0
 70
     0
 62
   253
  6
CONTINUOUS
  0
ENDTAB
  0
TABLE
  2
STYLE
 70
     1
  0
STYLE
  2
STANDARD
 70
     0
 40
0.0
 41
1.0
 50
0.0
 71
     0
 42
2.5
  3
txt
  4

  0
ENDTAB
  0
TABLE
  2
VIEW
 70
     0
  0
ENDTAB
  0
TABLE
  2
UCS
 70
     0
  0
ENDTAB
  0
TABLE
  2
APPID
 70
     1
  0
APPID
  2
ACAD
 70
     0
  0
ENDTAB
  0
TABLE
  2
DIMSTYLE
 70
     1
  0
DIMSTYLE
  2
ISO-25
 70
     0
  3

  4

  5

  6

  7

 40
1.0
 41
2.5
 42
0.625
 43
3.75
 44
1.25
 45
0.0
 46
0.0
 47
0.0
 48
0.0
140
2.5
141
2.5
142
0.0
143
0.03937007874016
144
1.0
145
0.0
146
1.0
147
0.625
 71
     0
 72
     0
 73
     0
 74
     0
 75
     0
 76
     0
 77
     1
 78
     8
170
     0
171
     3
172
     1
173
     0
174
     0
175
     0
176
     0
177
     0
178
     0
  0
ENDTAB
  0
ENDSEC
  0
SECTION
  2
BLOCKS
  0
BLOCK
  8
0
  2
$MODEL_SPACE
 70
     0
 10
0.0
 20
0.0
 30
0.0
  3
$MODEL_SPACE
  1

  0
ENDBLK
  5
21
  8
0
  0
BLOCK
 67
     1
  8
0
  2
$PAPER_SPACE
 70
     0
 10
0.0
 20
0.0
 30
0.0
  3
$PAPER_SPACE
  1

  0
ENDBLK
  5
1D
 67
     1
  8
0
  0
ENDSEC
  0
SECTION
  2
ENTITIES
  0
LINE
  5
6E
  8
0
 10
275.0
 20
-240.0
 30
0.0
 11
355.0
 21
-240.0
 31
0.0
  0
LINE
  5
6F
  8
0
 10
355.0
 20
0.0000000000000023
 30
0.0
 11
275.0
 21
0.0000000000000045
 31
0.0
  0
LINE
  5
70
  8
0
 10
275.0
 20
-52.50000000000001
 30
0.0
 11
270.0
 21
-52.50000000000001
 31
0.0
  0
LINE
  5
71
  8
0
 10
270.0
 20
-115.0
 30
0.0
 11
275.0
 21
-115.0
 31
0.0
  0
LINE
  5
72
  8
0
 10
275.0
 20
-115.0
 30
0.0
 11
275.0
 21
-72.50000000000003
 31
0.0
  0
LINE
  5
73
  8
0
 10
275.0
 20
-72.50000000000003
 30
0.0
 11
270.0
 21
-72.50000000000003
 31
0.0
  0
LINE
  5
74
  8
0
 10
270.0
 20
-167.5
 30
0.0
 11
275.0
 21
-167.5
 31
0.0
  0
LINE
  5
75
  8
0
 10
275.0
 20
-167.5
 30
0.0
 11
275.0
 21
-125.0
 31
0.0
  0
LINE
  5
76
  8
0
 10
275.0
 20
-125.0
 30
0.0
 11
270.0
 21
-125.0
 31
0.0
  0
LINE
  5
77
  8
0
 10
275.0
 20
-187.5
 30
0.0
 11
270.0
 21
-187.5
 31
0.0
  0
LINE
  5
78
  8
0
 10
270.0
 20
-167.5
 30
0.0
 11
270.0
 21
-187.5
 31
0.0
  0
LINE
  5
79
  8
0
 10
270.0
 20
-52.50000000000001
 30
0.0
 11
270.0
 21
-72.50000000000001
 31
0.0
  0
LINE
  5
7A
  8
0
 10
270.0
 20
-115.0
 30
0.0
 11
270.0
 21
-125.0
 31
0.0
  0
LINE
  5
7B
  8
0
 10
355.0
 20
0.0000000000000023
 30
0.0
 11
355.0
 21
-52.50000000000004
 31
0.0
  0
LINE
  5
7C
  8
0
 10
355.0
 20
-52.50000000000003
 30
0.0
 11
360.0
 21
-52.50000000000003
 31
0.0
  0
LINE
  5
7D
  8
0
 10
360.0
 20
-115.0
 30
0.0
 11
355.0
 21
-115.0
 31
0.0
  0
LINE
  5
7E
  8
0
 10
355.0
 20
-115.0
 30
0.0
 11
355.0
 21
-72.50000000000003
 31
0.0
  0
LINE
  5
7F
  8
0
 10
355.0
 20
-72.50000000000003
 30
0.0
 11
360.0
 21
-72.50000000000003
 31
0.0
  0
LINE
  5
80
  8
0
 10
360.0
 20
-167.5
 30
0.0
 11
355.0
 21
-167.5
 31
0.0
  0
LINE
  5
81
  8
0
 10
355.0
 20
-167.5
 30
0.0
 11
355.0
 21
-125.0
 31
0.0
  0
LINE
  5
82
  8
0
 10
355.0
 20
-125.0
 30
0.0
 11
360.0
 21
-125.0
 31
0.0
  0
LINE
  5
83
  8
0
 10
355.0
 20
-240.0
 30
0.0
 11
355.0
 21
-187.5
 31
0.0
  0
LINE
  5
84
  8
0
 10
355.0
 20
-187.5
 30
0.0
 11
360.0
 21
-187.5
 31
0.0
  0
LINE
  5
85
  8
0
 10
360.0
 20
-72.50000000000003
 30
0.0
 11
360.0
 21
-52.50000000000004
 31
0.0
  0
LINE
  5
86
  8
0
 10
360.0
 20
-187.5
 30
0.0
 11
360.0
 21
-167.5
 31
0.0
  0
LINE
  5
87
  8
0
 10
360.0
 20
-125.0
 30
0.0
 11
360.0
 21
-115.0
 31
0.0
  0
LINE
  5
88
  8
0
 10
275.0
 20
-20.00000000000001
 30
0.0
 11
315.0
 21
-20.00000000000001
 31
0.0
  0
LINE
  5
89
  8
0
 10
315.0
 20
-20.00000000000001
 30
0.0
 11
315.0
 21
-25.00000000000001
 31
0.0
  0
LINE
  5
8A
  8
0
 10
315.0
 20
-25.00000000000001
 30
0.0
 11
275.0
 21
-25.00000000000001
 31
0.0
  0
LINE
  5
8B
  8
0
 10
275.0
 20
0.0000000000000045
 30
0.0
 11
275.0
 21
-20.00000000000001
 31
0.0
  0
LINE
  5
8C
  8
0
 10
275.0
 20
-25.00000000000001
 30
0.0
 11
275.0
 21
-52.50000000000001
 31
0.0
  0
LINE
  5
8D
  8
0
 10
275.0
 20
-220.0
 30
0.0
 11
315.0
 21
-220.0
 31
0.0
  0
LINE
  5
8E
  8
0
 10
315.0
 20
-220.0
 30
0.0
 11
315.0
 21
-215.0
 31
0.0
  0
LINE
  5
8F
  8
0
 10
315.0
 20
-215.0
 30
0.0
 11
275.0
 21
-215.0
 31
0.0
  0
LINE
  5
90
  8
0
 10
275.0
 20
-240.0
 30
0.0
 11
275.0
 21
-220.0
 31
0.0
  0
LINE
  5
91
  8
0
 10
275.0
 20
-215.0
 30
0.0
 11
275.0
 21
-187.5
 31
0.0
  0
LINE
  5
92
  8
0
 10
-135.0
 20
-240.0
 30
0.0
 11
-65.0
 21
-240.0
 31
0.0
  0
LINE
  5
93
  8
0
 10
-64.99999999999999
 20
0.0000000000000139
 30
0.0
 11
-145.0
 21
0.0000000000000162
 31
0.0
  0
LINE
  5
94
  8
0
 10
-145.0
 20
-52.5
 30
0.0
 11
-150.0
 21
-52.5
 31
0.0
  0
LINE
  5
95
  8
0
 10
-150.0
 20
-115.0
 30
0.0
 11
-145.0
 21
-115.0
 31
0.0
  0
LINE
  5
96
  8
0
 10
-145.0
 20
-72.50000000000001
 30
0.0
 11
-150.0
 21
-72.50000000000001
 31
0.0
  0
LINE
  5
97
  8
0
 10
-150.0
 20
-167.5
 30
0.0
 11
-145.0
 21
-167.5
 31
0.0
  0
LINE
  5
98
  8
0
 10
-145.0
 20
-125.0
 30
0.0
 11
-150.0
 21
-125.0
 31
0.0
  0
LINE
  5
99
  8
0
 10
-145.0
 20
-187.5
 30
0.0
 11
-150.0
 21
-187.5
 31
0.0
  0
LINE
  5
9A
  8
0
 10
-150.0
 20
-167.5
 30
0.0
 11
-150.0
 21
-187.5
 31
0.0
  0
LINE
  5
9B
  8
0
 10
-150.0
 20
-52.5
 30
0.0
 11
-150.0
 21
-72.50000000000001
 31
0.0
  0
LINE
  5
9C
  8
0
 10
-150.0
 20
-115.0
 30
0.0
 11
-150.0
 21
-125.0
 31
0.0
  0
LINE
  5
9D
  8
0
 10
-64.99999999999999
 20
0.0000000000000139
 30
0.0
 11
-64.99999999999999
 21
-52.50000000000002
 31
0.0
  0
LINE
  5
9E
  8
0
 10
-64.99999999999999
 20
-52.50000000000002
 30
0.0
 11
-59.99999999999999
 21
-52.50000000000002
 31
0.0
  0
LINE
  5
9F
  8
0
 10
-59.99999999999999
 20
-115.0
 30
0.0
 11
-64.99999999999999
 21
-115.0
 31
0.0
  0
LINE
  5
A0
  8
0
 10
-64.99999999999999
 20
-115.0
 30
0.0
 11
-64.99999999999999
 21
-72.50000000000001
 31
0.0
  0
LINE
  5
A1
  8
0
 10
-64.99999999999999
 20
-72.50000000000001
 30
0.0
 11
-59.99999999999999
 21
-72.50000000000001
 31
0.0
  0
LINE
  5
A2
  8
0
 10
-59.99999999999999
 20
-167.5
 30
0.0
 11
-65.0
 21
-167.5
 31
0.0
  0
LINE
  5
A3
  8
0
 10
-64.99999999999999
 20
-167.5
 30
0.0
 11
-64.99999999999999
 21
-125.0
 31
0.0
  0
LINE
  5
A4
  8
0
 10
-64.99999999999999
 20
-125.0
 30
0.0
 11
-59.99999999999999
 21
-125.0
 31
0.0
  0
LINE
  5
A5
  8
0
 10
-64.99999999999999
 20
-240.0
 30
0.0
 11
-64.99999999999999
 21
-187.5
 31
0.0
  0
LINE
  5
A6
  8
0
 10
-64.99999999999999
 20
-187.5
 30
0.0
 11
-59.99999999999999
 21
-187.5
 31
0.0
  0
LINE
  5
A7
  8
0
 10
-59.99999999999999
 20
-72.50000000000001
 30
0.0
 11
-59.99999999999999
 21
-52.50000000000002
 31
0.0
  0
LINE
  5
A8
  8
0
 10
-59.99999999999999
 20
-187.5
 30
0.0
 11
-59.99999999999999
 21
-167.5
 31
0.0
  0
LINE
  5
A9
  8
0
 10
-59.99999999999999
 20
-125.0
 30
0.0
 11
-59.99999999999999
 21
-115.0
 31
0.0
  0
LINE
  5
AA
  8
0
 10
-145.0
 20
-20.0
 30
0.0
 11
-105.0
 21
-20.0
 31
0.0
  0
LINE
  5
AB
  8
0
 10
-105.0
 20
-20.0
 30
0.0
 11
-105.0
 21
-25.0
 31
0.0
  0
LINE
  5
AC
  8
0
 10
-105.0
 20
-25.0
 30
0.0
 11
-145.0
 21
-25.0
 31
0.0
  0
LINE
  5
AD
  8
0
 10
-145.0
 20
-220.0
 30
0.0
 11
-105.0
 21
-220.0
 31
0.0
  0
LINE
  5
AE
  8
0
 10
-105.0
 20
-220.0
 30
0.0
 11
-105.0
 21
-215.0
 31
0.0
  0
LINE
  5
AF
  8
0
 10
-105.0
 20
-215.0
 30
0.0
 11
-145.0
 21
-215.0
 31
0.0
  0
LINE
  5
B0
  8
0
 10
328.2999999999988
 20
-82.33000000000044
 30
0.0
 11
311.2899999999988
 21
-82.33000000000038
 31
0.0
  0
LINE
  5
B1
  8
0
 10
309.2999999999988
 20
-80.34000000000043
 30
0.0
 11
309.2999999999989
 21
-56.32000000000052
 31
0.0
  0
LINE
  5
B2
  8
0
 10
311.2899999999989
 20
-54.3300000000004
 30
0.0
 11
328.2999999999989
 21
-54.33000000000045
 31
0.0
  0
LINE
  5
B3
  8
0
 10
328.2999999999988
 20
-54.33000000000049
 30
0.0
 11
328.2999999999987
 21
-82.33000000000048
 31
0.0
  0
CIRCLE
  5
B4
  8
0
 10
318.7999999999989
 20
-48.33000000000045
 30
0.0
 40
2.0
  0
CIRCLE
  5
B5
  8
0
 10
318.7999999999987
 20
-88.33000000000045
 30
0.0
 40
2.0
  0
LINE
  5
B6
  8
0
 10
311.2899999999988
 20
-82.33000000000047
 30
0.0
 11
309.2999999999988
 21
-80.34000000000043
 31
0.0
  0
LINE
  5
B7
  8
0
 10
311.2899999999989
 20
-54.33000000000045
 30
0.0
 11
309.2999999999989
 21
-56.3200000000005
 31
0.0
  0
LINE
  5
B8
  8
0
 10
135.0
 20
-240.0
 30
0.0
 11
215.0
 21
-240.0
 31
0.0
  0
LINE
  5
B9
  8
0
 10
215.0
 20
0.0000000000000062
 30
0.0
 11
135.0
 21
0.0000000000000084
 31
0.0
  0
LINE
  5
BA
  8
0
 10
135.0
 20
-52.50000000000001
 30
0.0
 11
130.0
 21
-52.50000000000001
 31
0.0
  0
LINE
  5
BB
  8
0
 10
130.0
 20
-115.0
 30
0.0
 11
135.0
 21
-115.0
 31
0.0
  0
LINE
  5
BC
  8
0
 10
135.0
 20
-115.0
 30
0.0
 11
135.0
 21
-75.0
 31
0.0
  0
LINE
  5
BD
  8
0
 10
135.0
 20
-72.50000000000001
 30
0.0
 11
130.0
 21
-72.50000000000001
 31
0.0
  0
LINE
  5
BE
  8
0
 10
130.0
 20
-167.5
 30
0.0
 11
135.0
 21
-167.5
 31
0.0
  0
LINE
  5
BF
  8
0
 10
135.0
 20
-167.5
 30
0.0
 11
135.0
 21
-125.0
 31
0.0
  0
LINE
  5
C0
  8
0
 10
135.0
 20
-125.0
 30
0.0
 11
130.0
 21
-125.0
 31
0.0
  0
LINE
  5
C1
  8
0
 10
135.0
 20
-187.5
 30
0.0
 11
130.0
 21
-187.5
 31
0.0
  0
LINE
  5
C2
  8
0
 10
130.0
 20
-167.5
 30
0.0
 11
130.0
 21
-187.5
 31
0.0
  0
LINE
  5
C3
  8
0
 10
130.0
 20
-52.50000000000001
 30
0.0
 11
130.0
 21
-72.50000000000001
 31
0.0
  0
LINE
  5
C4
  8
0
 10
130.0
 20
-115.0
 30
0.0
 11
130.0
 21
-125.0
 31
0.0
  0
LINE
  5
C5
  8
0
 10
215.0
 20
0.0000000000000062
 30
0.0
 11
215.0
 21
-52.50000000000003
 31
0.0
  0
LINE
  5
C6
  8
0
 10
215.0
 20
-52.50000000000003
 30
0.0
 11
220.0
 21
-52.50000000000003
 31
0.0
  0
LINE
  5
C7
  8
0
 10
220.0
 20
-115.0
 30
0.0
 11
215.0
 21
-115.0
 31
0.0
  0
LINE
  5
C8
  8
0
 10
215.0
 20
-115.0
 30
0.0
 11
215.0
 21
-72.50000000000001
 31
0.0
  0
LINE
  5
C9
  8
0
 10
215.0
 20
-72.50000000000001
 30
0.0
 11
220.0
 21
-72.50000000000001
 31
0.0
  0
LINE
  5
CA
  8
0
 10
220.0
 20
-167.5
 30
0.0
 11
215.0
 21
-167.5
 31
0.0
  0
LINE
  5
CB
  8
0
 10
215.0
 20
-167.5
 30
0.0
 11
215.0
 21
-125.0
 31
0.0
  0
LINE
  5
CC
  8
0
 10
215.0
 20
-125.0
 30
0.0
 11
220.0
 21
-125.0
 31
0.0
  0
LINE
  5
CD
  8
0
 10
215.0
 20
-240.0
 30
0.0
 11
215.0
 21
-187.5
 31
0.0
  0
LINE
  5
CE
  8
0
 10
215.0
 20
-187.5
 30
0.0
 11
220.0
 21
-187.5
 31
0.0
  0
LINE
  5
CF
  8
0
 10
220.0
 20
-72.50000000000001
 30
0.0
 11
220.0
 21
-52.50000000000002
 31
0.0
  0
LINE
  5
D0
  8
0
 10
220.0
 20
-187.5
 30
0.0
 11
220.0
 21
-167.5
 31
0.0
  0
LINE
  5
D1
  8
0
 10
220.0
 20
-125.0
 30
0.0
 11
220.0
 21
-115.0
 31
0.0
  0
LINE
  5
D2
  8
0
 10
135.0
 20
-20.0
 30
0.0
 11
175.0
 21
-20.0
 31
0.0
  0
LINE
  5
D3
  8
0
 10
175.0
 20
-20.0
 30
0.0
 11
175.0
 21
-25.0
 31
0.0
  0
LINE
  5
D4
  8
0
 10
175.0
 20
-25.0
 30
0.0
 11
145.0
 21
-25.0
 31
0.0
  0
LINE
  5
D5
  8
0
 10
135.0
 20
0.0000000000000084
 30
0.0
 11
135.0
 21
-20.0
 31
0.0
  0
LINE
  5
D6
  8
0
 10
135.0
 20
-220.0
 30
0.0
 11
175.0
 21
-220.0
 31
0.0
  0
LINE
  5
D7
  8
0
 10
175.0
 20
-220.0
 30
0.0
 11
175.0
 21
-215.0
 31
0.0
  0
LINE
  5
D8
  8
0
 10
175.0
 20
-215.0
 30
0.0
 11
135.0
 21
-215.0
 31
0.0
  0
LINE
  5
D9
  8
0
 10
135.0
 20
-240.0
 30
0.0
 11
135.0
 21
-220.0
 31
0.0
  0
LINE
  5
DA
  8
0
 10
135.0
 20
-215.0
 30
0.0
 11
135.0
 21
-187.5
 31
0.0
  0
LINE
  5
DB
  8
0
 10
145.0
 20
-25.0
 30
0.0
 11
135.0
 21
-25.0
 31
0.0
  0
LINE
  5
DC
  8
0
 10
145.0
 20
-75.0
 30
0.0
 11
145.0
 21
-95.0
 31
0.0
  0
LINE
  5
DD
  8
0
 10
145.0
 20
-95.0
 30
0.0
 11
150.0
 21
-95.0
 31
0.0
  0
LINE
  5
DE
  8
0
 10
150.0
 20
-95.0
 30
0.0
 11
150.0
 21
-75.0
 31
0.0
  0
LINE
  5
DF
  8
0
 10
150.0
 20
-75.0
 30
0.0
 11
145.0
 21
-75.0
 31
0.0
  0
LINE
  5
E0
  8
0
 10
135.0
 20
-25.0
 30
0.0
 11
135.0
 21
-52.50000000000001
 31
0.0
  0
LINE
  5
E1
  8
0
 10
135.0
 20
-72.50000000000001
 30
0.0
 11
135.0
 21
-75.0
 31
0.0
  0
LINE
  5
E2
  8
0
 10
-5.000000000000012
 20
-240.0
 30
0.0
 11
74.99999999999996
 21
-240.0
 31
0.0
  0
LINE
  5
E3
  8
0
 10
74.99999999999996
 20
0.0000000000000101
 30
0.0
 11
-5.000000000000004
 21
0.0000000000000123
 31
0.0
  0
LINE
  5
E4
  8
0
 10
-5.000000000000006
 20
-52.50000000000001
 30
0.0
 11
-10.00000000000001
 21
-52.50000000000001
 31
0.0
  0
LINE
  5
E5
  8
0
 10
-10.00000000000001
 20
-115.0
 30
0.0
 11
-5.000000000000008
 21
-115.0
 31
0.0
  0
LINE
  5
E6
  8
0
 10
-5.000000000000008
 20
-115.0
 30
0.0
 11
-5.000000000000007
 21
-75.0
 31
0.0
  0
LINE
  5
E7
  8
0
 10
-5.000000000000006
 20
-72.50000000000001
 30
0.0
 11
-10.00000000000001
 21
-72.50000000000001
 31
0.0
  0
LINE
  5
E8
  8
0
 10
-10.00000000000001
 20
-167.5
 30
0.0
 11
-5.00000000000001
 21
-167.5
 31
0.0
  0
LINE
  5
E9
  8
0
 10
-5.000000000000009
 20
-167.5
 30
0.0
 11
-5.000000000000008
 21
-125.0
 31
0.0
  0
LINE
  5
EA
  8
0
 10
-5.000000000000008
 20
-125.0
 30
0.0
 11
-10.00000000000001
 21
-125.0
 31
0.0
  0
LINE
  5
EB
  8
0
 10
-5.00000000000001
 20
-187.5
 30
0.0
 11
-10.00000000000001
 21
-187.5
 31
0.0
  0
LINE
  5
EC
  8
0
 10
-10.00000000000001
 20
-167.5
 30
0.0
 11
-10.00000000000001
 21
-187.5
 31
0.0
  0
LINE
  5
ED
  8
0
 10
-10.00000000000001
 20
-52.50000000000001
 30
0.0
 11
-10.00000000000001
 21
-72.50000000000001
 31
0.0
  0
LINE
  5
EE
  8
0
 10
-10.00000000000001
 20
-115.0
 30
0.0
 11
-10.00000000000001
 21
-125.0
 31
0.0
  0
LINE
  5
EF
  8
0
 10
74.99999999999996
 20
0.0000000000000101
 30
0.0
 11
74.99999999999996
 21
-52.50000000000003
 31
0.0
  0
LINE
  5
F0
  8
0
 10
74.99999999999996
 20
-52.50000000000002
 30
0.0
 11
79.99999999999996
 21
-52.50000000000002
 31
0.0
  0
LINE
  5
F1
  8
0
 10
79.99999999999996
 20
-115.0
 30
0.0
 11
74.99999999999996
 21
-115.0
 31
0.0
  0
LINE
  5
F2
  8
0
 10
74.99999999999996
 20
-115.0
 30
0.0
 11
74.99999999999996
 21
-72.50000000000001
 31
0.0
  0
LINE
  5
F3
  8
0
 10
74.99999999999996
 20
-72.50000000000001
 30
0.0
 11
79.99999999999996
 21
-72.50000000000001
 31
0.0
  0
LINE
  5
F4
  8
0
 10
79.99999999999996
 20
-167.5
 30
0.0
 11
74.99999999999996
 21
-167.5
 31
0.0
  0
LINE
  5
F5
  8
0
 10
74.99999999999996
 20
-167.5
 30
0.0
 11
74.99999999999996
 21
-125.0
 31
0.0
  0
LINE
  5
F6
  8
0
 10
74.99999999999996
 20
-125.0
 30
0.0
 11
79.99999999999996
 21
-125.0
 31
0.0
  0
LINE
  5
F7
  8
0
 10
74.99999999999996
 20
-240.0
 30
0.0
 11
74.99999999999996
 21
-187.5
 31
0.0
  0
LINE
  5
F8
  8
0
 10
74.99999999999996
 20
-187.5
 30
0.0
 11
79.99999999999996
 21
-187.5
 31
0.0
  0
LINE
  5
F9
  8
0
 10
79.99999999999996
 20
-72.50000000000001
 30
0.0
 11
79.99999999999996
 21
-52.50000000000002
 31
0.0
  0
LINE
  5
FA
  8
0
 10
79.99999999999996
 20
-187.5
 30
0.0
 11
79.99999999999996
 21
-167.5
 31
0.0
  0
LINE
  5
FB
  8
0
 10
79.99999999999996
 20
-125.0
 30
0.0
 11
79.99999999999996
 21
-115.0
 31
0.0
  0
LINE
  5
FC
  8
0
 10
-5.000000000000005
 20
-20.0
 30
0.0
 11
34.99999999999998
 21
-20.0
 31
0.0
  0
LINE
  5
FD
  8
0
 10
34.99999999999998
 20
-20.0
 30
0.0
 11
34.99999999999998
 21
-25.0
 31
0.0
  0
LINE
  5
FE
  8
0
 10
34.99999999999998
 20
-25.0
 30
0.0
 11
4.999999999999977
 21
-25.0
 31
0.0
  0
LINE
  5
FF
  8
0
 10
-5.000000000000004
 20
0.0000000000000123
 30
0.0
 11
-5.000000000000005
 21
-20.0
 31
0.0
  0
LINE
  5
100
  8
0
 10
-5.000000000000011
 20
-220.0
 30
0.0
 11
34.99999999999997
 21
-220.0
 31
0.0
  0
LINE
  5
101
  8
0
 10
34.99999999999997
 20
-220.0
 30
0.0
 11
34.99999999999997
 21
-215.0
 31
0.0
  0
LINE
  5
102
  8
0
 10
34.99999999999997
 20
-215.0
 30
0.0
 11
-5.000000000000012
 21
-215.0
 31
0.0
  0
LINE
  5
103
  8
0
 10
-5.000000000000012
 20
-240.0
 30
0.0
 11
-5.000000000000011
 21
-220.0
 31
0.0
  0
LINE
  5
104
  8
0
 10
-5.000000000000011
 20
-215.0
 30
0.0
 11
-5.00000000000001
 21
-187.5
 31
0.0
  0
LINE
  5
105
  8
0
 10
4.999999999999976
 20
-25.0
 30
0.0
 11
-5.000000000000005
 21
-25.0
 31
0.0
  0
LINE
  5
106
  8
0
 10
4.999999999999975
 20
-75.0
 30
0.0
 11
4.999999999999974
 21
-95.0
 31
0.0
  0
LINE
  5
107
  8
0
 10
4.999999999999974
 20
-95.0
 30
0.0
 11
9.999999999999977
 21
-95.0
 31
0.0
  0
LINE
  5
108
  8
0
 10
9.999999999999977
 20
-95.0
 30
0.0
 11
9.999999999999977
 21
-75.0
 31
0.0
  0
LINE
  5
109
  8
0
 10
9.999999999999979
 20
-75.0
 30
0.0
 11
4.999999999999975
 21
-75.0
 31
0.0
  0
LINE
  5
10A
  8
0
 10
-5.000000000000005
 20
-25.0
 30
0.0
 11
-5.000000000000006
 21
-52.50000000000001
 31
0.0
  0
LINE
  5
10B
  8
0
 10
-5.000000000000006
 20
-72.50000000000001
 30
0.0
 11
-5.000000000000006
 21
-74.99999999999999
 31
0.0
  0
LINE
  5
10C
  8
0
 10
-145.0
 20
-240.0
 30
0.0
 11
-135.0
 21
-240.0
 31
0.0
  0
LINE
  5
10D
  8
0
 10
-135.0
 20
0.0000000000000142
 30
0.0
 11
-145.0
 21
0.0000000000000144
 31
0.0
  0
LINE
  5
10E
  8
0
 10
-145.0
 20
0.0000000000000144
 30
0.0
 11
-145.0
 21
-20.0
 31
0.0
  0
LINE
  5
10F
  8
0
 10
-145.0
 20
-25.0
 30
0.0
 11
-145.0
 21
-52.50000000000001
 31
0.0
  0
LINE
  5
110
  8
0
 10
-145.0
 20
-72.50000000000001
 30
0.0
 11
-145.0
 21
-115.0
 31
0.0
  0
LINE
  5
111
  8
0
 10
-145.0
 20
-125.0
 30
0.0
 11
-145.0
 21
-167.5
 31
0.0
  0
LINE
  5
112
  8
0
 10
-145.0
 20
-187.5
 30
0.0
 11
-145.0
 21
-215.0
 31
0.0
  0
LINE
  5
113
  8
0
 10
-145.0
 20
-220.0
 30
0.0
 11
-145.0
 21
-240.0
 31
0.0
  0
LINE
  5
114
  8
0
 10
-64.99999999999999
 20
0.0000000000000139
 30
0.0
 11
-64.99999999999999
 21
-240.0
 31
0.0
  0
LINE
  5
115
  8
0
 10
-64.99999999999999
 20
-240.0
 30
0.0
 11
-75.0
 21
-240.0
 31
0.0
  0
LINE
  5
116
  8
0
 10
-75.0
 20
0.0000000000000142
 30
0.0
 11
-64.99999999999999
 21
0.0000000000000139
 31
0.0
  0
LINE
  5
117
  8
0
 10
-75.0
 20
-120.0
 30
0.0
 11
-75.0
 21
-110.0
 31
0.0
  0
LINE
  5
118
  8
0
 10
-75.0
 20
-110.0
 30
0.0
 11
-80.0
 21
-110.0
 31
0.0
  0
LINE
  5
119
  8
0
 10
-80.0
 20
-110.0
 30
0.0
 11
-80.0
 21
-120.0
 31
0.0
  0
LINE
  5
11A
  8
0
 10
-80.0
 20
-120.0
 30
0.0
 11
-80.0
 21
-130.0
 31
0.0
  0
LINE
  5
11B
  8
0
 10
-80.0
 20
-130.0
 30
0.0
 11
-75.0
 21
-130.0
 31
0.0
  0
LINE
  5
11C
  8
0
 10
-75.0
 20
-130.0
 30
0.0
 11
-75.0
 21
-120.0
 31
0.0
  0
ARC
  5
11D
  8
0
 10
318.0
 20
-133.0
 30
0.0
 40
5.0
 50
293.5781784782016
 51
246.4218215217986
  0
LINE
  5
11E
  8
0
 10
316.0
 20
-137.5825756949559
 30
0.0
 11
320.0
 21
-137.5825756949559
 31
0.0
  0
LINE
  5
11F
  8
0
 10
-130.61
 20
-176.9400000000001
 30
0.0
 11
-100.61
 21
-176.94
 31
0.0
  0
LINE
  5
120
  8
0
 10
-100.61
 20
-176.94
 30
0.0
 11
-100.6100000000001
 21
-154.94
 31
0.0
  0
LINE
  5
121
  8
0
 10
-100.6100000000001
 20
-154.94
 30
0.0
 11
-130.6100000000001
 21
-154.9400000000001
 31
0.0
  0
LINE
  5
122
  8
0
 10
-130.6100000000001
 20
-154.9400000000001
 30
0.0
 11
-130.61
 21
-176.9400000000001
 31
0.0
  0
LINE
  5
123
  8
0
 10
30.49999999999997
 20
-53.83116523516816
 30
0.0
 11
30.49999999999997
 21
-71.50883476483193
 31
0.0
  0
LINE
  5
124
  8
0
 10
30.49999999999997
 20
-71.50883476483193
 30
0.0
 11
13.70298824727674
 21
-71.50883476483193
 31
0.0
  0
LINE
  5
125
  8
0
 10
13.70298824727674
 20
-71.50883476483193
 30
0.0
 11
13.70298824727674
 21
-53.83116523516816
 31
0.0
  0
LINE
  5
126
  8
0
 10
13.70298824727674
 20
-53.83116523516816
 30
0.0
 11
30.49999999999996
 21
-53.83116523516816
 31
0.0
  0
CIRCLE
  5
127
  8
0
 10
180.0418230121086
 20
-58.69000000000004
 30
0.0
 40
19.0
  0
CIRCLE
  5
128
  8
0
 10
196.0418230121086
 20
-42.69000000000003
 30
0.0
 40
1.6
  0
CIRCLE
  5
129
  8
0
 10
164.0418230121086
 20
-42.69000000000003
 30
0.0
 40
1.600000000000004
  0
CIRCLE
  5
12A
  8
0
 10
164.0418230121086
 20
-74.69000000000003
 30
0.0
 40
1.59999999999999
  0
CIRCLE
  5
12B
  8
0
 10
196.0418230121086
 20
-74.69000000000003
 30
0.0
 40
1.600000000000004
  0
CIRCLE
  5
12C
  8
0
 10
180.0418230121086
 20
-179.5700000000001
 30
0.0
 40
19.0
  0
CIRCLE
  5
12D
  8
0
 10
196.0418230121086
 20
-163.5700000000001
 30
0.0
 40
1.6
  0
CIRCLE
  5
12E
  8
0
 10
164.0418230121086
 20
-163.5700000000001
 30
0.0
 40
1.600000000000004
  0
CIRCLE
  5
12F
  8
0
 10
164.0418230121086
 20
-195.57
 30
0.0
 40
1.59999999999999
  0
CIRCLE
  5
130
  8
0
 10
196.0418230121086
 20
-195.57
 30
0.0
 40
1.600000000000004
  0
ENDSEC
  0
EOF
